<svg width="623" height="441" viewBox="0 0 623 441" fill="none" xmlns="http://www.w3.org/2000/svg">
<path fill-rule="evenodd" clip-rule="evenodd" d="M215.317 34.3198H187.384C180.759 34.3198 175.346 39.7369 175.346 46.3655V438.906H227.355V46.3655C227.355 39.7369 221.941 34.3198 215.317 34.3198Z" fill="#6A7081"/>
<path fill-rule="evenodd" clip-rule="evenodd" d="M215.317 34.3198H187.384C180.759 34.3198 175.346 39.7369 175.346 46.3655V51.7999H227.355V46.3655C227.355 39.7369 221.941 34.3198 215.317 34.3198Z" fill="#33383D"/>
<path fill-rule="evenodd" clip-rule="evenodd" d="M194.77 51.7999V438.889H236.47V51.7999L212.723 43.5791L194.77 51.7999Z" fill="#2AAEF8"/>
<path fill-rule="evenodd" clip-rule="evenodd" d="M224.432 34.3198H206.808C200.183 34.3198 194.77 39.7369 194.77 46.3655V51.7999H236.47V46.3655C236.47 39.7369 231.056 34.3198 224.432 34.3198Z" fill="#474C50"/>
<path fill-rule="evenodd" clip-rule="evenodd" d="M215.612 89.2695C220.939 89.2695 225.297 93.6309 225.297 98.9615V438.906H205.926V98.9615C205.926 93.6309 210.284 89.2695 215.612 89.2695Z" fill="#333333"/>
<path d="M227.355 263.292H203.885V272.412H227.355V263.292Z" fill="#2AAEF8"/>
<path fill-rule="evenodd" clip-rule="evenodd" d="M116.904 263.292C146.584 263.292 176.264 263.292 205.944 263.292V272.412C205.944 277.431 201.81 282.035 196.829 281.533L126.037 274.403C121.055 273.901 116.922 270.301 116.922 265.282V263.292H116.904Z" fill="#2AAEF8"/>
<path fill-rule="evenodd" clip-rule="evenodd" d="M225.297 263.292C254.977 263.292 273.293 263.292 302.973 263.292V265.282C302.973 270.301 298.839 273.814 293.858 274.403L234.429 281.533C229.448 282.122 225.314 277.431 225.314 272.412V263.292H225.297Z" fill="#2AAEF8"/>
<path fill-rule="evenodd" clip-rule="evenodd" d="M192.158 263.292H327.966L597.662 251.938L605.981 224.645L604.649 173.52H192.158V263.292Z" fill="#1C1F25"/>
<path fill-rule="evenodd" clip-rule="evenodd" d="M541.986 186.898C543.006 186.673 544.027 187.296 544.251 188.318C544.476 189.339 543.854 190.36 542.833 190.585L520.331 195.725C519.311 195.95 518.29 195.327 518.065 194.306C517.841 193.285 518.463 192.264 519.484 192.039L541.986 186.898ZM542.02 195.206L519.518 200.346C518.498 200.571 517.858 201.592 518.1 202.613C518.325 203.634 519.345 204.275 520.366 204.032L542.868 198.892C543.888 198.667 544.528 197.646 544.286 196.625C544.044 195.604 543.041 194.964 542.02 195.206ZM542.038 203.496C543.058 203.271 544.079 203.894 544.303 204.915C544.528 205.936 543.906 206.957 542.885 207.182L520.383 212.322C519.363 212.547 518.342 211.924 518.117 210.903C517.892 209.882 518.515 208.861 519.536 208.636L542.038 203.496Z" fill="#666666"/>
<path fill-rule="evenodd" clip-rule="evenodd" d="M533.045 194.479L529.31 194.496C527.165 194.496 525.418 196.261 525.418 198.407L525.487 225.96C525.487 228.106 527.251 229.854 529.396 229.854L533.132 229.837C535.277 229.837 537.023 228.072 537.023 225.925L536.954 198.373C536.937 196.209 535.173 194.461 533.045 194.479Z" fill="#666666"/>
<path d="M533.225 185.803L529.074 185.814L529.097 194.485L533.248 194.474L533.225 185.803Z" fill="#666666"/>
<path fill-rule="evenodd" clip-rule="evenodd" d="M534.031 189.425L528.271 189.443C526.68 189.443 525.383 188.145 525.365 186.552V186.258C525.365 184.666 526.662 183.368 528.254 183.368L534.013 183.351C535.604 183.351 536.902 184.649 536.902 186.241V186.535C536.919 188.11 535.622 189.408 534.031 189.425Z" fill="#666666"/>
<path fill-rule="evenodd" clip-rule="evenodd" d="M540.154 186.241L522.149 186.293C521.319 186.293 520.645 185.618 520.645 184.787V183.333C520.645 182.502 521.319 181.827 522.149 181.827L540.154 181.775C540.985 181.775 541.659 182.45 541.659 183.281V184.735C541.659 185.548 540.985 186.241 540.154 186.241Z" fill="#666666"/>
<path fill-rule="evenodd" clip-rule="evenodd" d="M535.638 186.742L526.644 186.76C524.673 186.76 523.064 185.15 523.047 183.194V181.585C523.047 179.612 524.655 178.002 526.61 177.985L535.604 177.968C537.576 177.968 539.184 179.577 539.201 181.533V183.143C539.219 185.116 537.61 186.725 535.638 186.742Z" fill="#666666"/>
<path fill-rule="evenodd" clip-rule="evenodd" d="M538.978 219.47L523.498 219.505C522.581 219.505 521.82 218.761 521.82 217.843C521.82 216.926 522.564 216.164 523.481 216.164L538.961 216.13C539.877 216.13 540.638 216.874 540.638 217.791C540.638 218.709 539.895 219.47 538.978 219.47Z" fill="#666666"/>
<path fill-rule="evenodd" clip-rule="evenodd" d="M531.245 223.745C528.98 223.745 527.112 225.614 527.129 227.898L527.164 243.129C527.164 245.396 529.032 247.265 531.315 247.248C533.58 247.248 535.448 245.379 535.431 243.094L535.397 227.864C535.379 225.579 533.511 223.727 531.245 223.745Z" fill="#666666"/>
<path fill-rule="evenodd" clip-rule="evenodd" d="M531.281 238.491C528.099 238.491 525.504 241.087 525.522 244.289C525.522 247.49 528.116 250.069 531.316 250.052C534.515 250.052 537.092 247.456 537.075 244.254C537.075 241.069 534.481 238.491 531.281 238.491Z" fill="#333333"/>
<path fill-rule="evenodd" clip-rule="evenodd" d="M531.298 241.554C529.793 241.554 528.582 242.783 528.582 244.288C528.582 245.794 529.81 247.005 531.315 247.005C532.82 247.005 534.03 245.777 534.03 244.271C534.013 242.765 532.802 241.554 531.298 241.554Z" fill="#E5E5E5"/>
<path fill-rule="evenodd" clip-rule="evenodd" d="M519.624 187.47C518.586 187.331 517.859 186.362 518.015 185.323C518.154 184.285 519.122 183.558 520.16 183.714L542.696 186.881C543.734 187.02 544.461 187.989 544.305 189.027C544.167 190.066 543.198 190.792 542.16 190.637L519.624 187.47ZM519.641 195.76C518.603 195.621 517.877 194.652 518.032 193.613C518.171 192.575 519.139 191.848 520.177 192.004L542.714 195.171C543.752 195.31 544.478 196.279 544.322 197.317C544.184 198.356 543.215 199.083 542.178 198.927L519.641 195.76ZM519.658 204.05C518.621 203.911 517.894 202.942 518.05 201.904C518.188 200.865 519.157 200.138 520.194 200.294L542.731 203.461C543.769 203.6 544.495 204.569 544.34 205.607C544.201 206.646 543.233 207.373 542.195 207.217L519.658 204.05ZM519.693 212.357C518.655 212.219 517.929 211.249 518.084 210.211C518.223 209.173 519.191 208.446 520.229 208.601L542.766 211.769C543.803 211.907 544.53 212.876 544.374 213.915C544.236 214.953 543.267 215.68 542.23 215.524L519.693 212.357Z" fill="#808080"/>
<path fill-rule="evenodd" clip-rule="evenodd" d="M544.65 217.635L517.789 217.705C516.924 217.705 516.232 217.012 516.232 216.147C516.232 215.282 516.924 214.589 517.789 214.589L544.65 214.52C545.514 214.52 546.206 215.212 546.206 216.078C546.206 216.926 545.514 217.635 544.65 217.635Z" fill="#666666"/>
<path fill-rule="evenodd" clip-rule="evenodd" d="M544.564 184.614L517.703 184.683C516.838 184.683 516.146 183.991 516.146 183.125C516.146 182.26 516.838 181.568 517.703 181.568L544.564 181.499C545.429 181.499 546.12 182.191 546.12 183.056C546.12 183.904 545.429 184.614 544.564 184.614Z" fill="#666666"/>
<path d="M545.93 261.526C554.05 261.526 560.632 253.94 560.632 244.582C560.632 235.225 554.05 227.639 545.93 227.639C537.811 227.639 531.229 235.225 531.229 244.582C531.229 253.94 537.811 261.526 545.93 261.526Z" fill="#666666"/>
<path fill-rule="evenodd" clip-rule="evenodd" d="M566.478 233.35C565.371 229.526 563.832 225.943 561.894 222.897C559.905 219.747 557.865 218.068 556.55 218.103C556.55 218.086 554.509 218.103 554.371 218.103C553.592 218.138 553.108 218.778 553.125 220.076L553.247 228.539C553.264 229.301 553.489 230.235 553.886 230.806C555.166 232.606 556.394 235.22 557.034 237.694C557.743 240.135 558.037 243.198 557.934 245.69C557.899 246.469 558.176 247.386 558.539 247.958L562.5 254.534C562.846 255.123 563.226 255.4 563.607 255.4C564.178 255.4 565.284 255.4 565.821 255.4C566.824 254.309 567.983 249.463 568 245.327C568 241.312 567.481 237.227 566.478 233.35Z" fill="#666666"/>
<path d="M551.102 237.071H489.822V250.069H551.102V237.071Z" fill="#666666"/>
<path fill-rule="evenodd" clip-rule="evenodd" d="M540.93 215.957C552.743 215.957 562.325 228.781 562.325 244.6C562.325 260.418 552.743 273.243 540.93 273.243C529.117 273.243 519.535 260.418 519.535 244.6C519.535 228.781 529.1 215.957 540.93 215.957ZM548.385 255.711C549.18 254.949 549.353 253.461 548.783 252.405C548.575 252.024 548.298 251.747 548.004 251.592C547.866 251.661 547.745 251.765 547.624 251.886C546.828 252.647 546.655 254.136 547.226 255.192C547.433 255.572 547.71 255.849 548.004 256.005C548.143 255.936 548.264 255.832 548.385 255.711ZM551.1 243.267C551.965 242.817 552.415 241.536 552.138 240.342C551.965 239.65 551.584 239.131 551.117 238.871C550.253 239.321 549.803 240.602 550.08 241.796C550.235 242.488 550.616 243.007 551.1 243.267ZM543.006 230.996C542.348 231.342 541.899 232.191 541.899 233.194C541.899 234.198 542.366 235.046 543.006 235.392C543.663 235.046 544.113 234.198 544.113 233.194C544.113 232.208 543.646 231.342 543.006 230.996ZM538.007 251.609C537.713 251.765 537.436 252.042 537.229 252.422C536.658 253.478 536.831 254.949 537.627 255.728C537.748 255.849 537.886 255.936 538.007 256.022C538.301 255.867 538.578 255.59 538.786 255.209C539.356 254.153 539.183 252.682 538.388 251.903C538.267 251.782 538.128 251.678 538.007 251.609ZM534.911 238.871C534.444 239.113 534.046 239.633 533.891 240.342C533.597 241.536 534.064 242.817 534.929 243.267C535.396 243.025 535.793 242.505 535.949 241.796C536.226 240.602 535.776 239.321 534.911 238.871ZM543.04 251.09C545.462 250.692 547.33 247.94 547.33 244.582C547.33 241.225 545.462 238.473 543.04 238.075C540.619 238.473 538.751 241.225 538.751 244.582C538.751 247.94 540.636 250.692 543.04 251.09Z" fill="#A5AAAF"/>
<path fill-rule="evenodd" clip-rule="evenodd" d="M545.256 215.957C557.069 215.957 566.651 228.781 566.651 244.6C566.651 260.418 557.069 273.243 545.256 273.243C533.443 273.243 523.861 260.418 523.861 244.6C523.861 228.781 533.443 215.957 545.256 215.957ZM550.67 255.711C551.466 254.949 551.639 253.461 551.068 252.405C550.86 252.024 550.584 251.747 550.29 251.592C550.151 251.661 550.03 251.765 549.909 251.886C549.113 252.647 548.94 254.136 549.511 255.192C549.719 255.572 549.995 255.849 550.29 256.005C550.411 255.936 550.549 255.832 550.67 255.711ZM553.368 243.267C554.233 242.817 554.683 241.536 554.406 240.342C554.233 239.65 553.852 239.131 553.385 238.871C552.521 239.321 552.071 240.602 552.348 241.796C552.503 242.488 552.901 243.007 553.368 243.267ZM545.274 230.996C544.616 231.342 544.167 232.191 544.167 233.194C544.167 234.198 544.634 235.046 545.274 235.392C545.931 235.046 546.381 234.198 546.381 233.194C546.398 232.208 545.931 231.342 545.274 230.996ZM540.275 251.609C539.981 251.765 539.704 252.042 539.497 252.422C538.926 253.478 539.099 254.949 539.895 255.728C540.016 255.849 540.154 255.936 540.275 256.022C540.569 255.867 540.846 255.59 541.053 255.209C541.624 254.153 541.451 252.682 540.656 251.903C540.535 251.782 540.414 251.678 540.275 251.609ZM537.179 238.871C536.712 239.113 536.314 239.633 536.159 240.342C535.865 241.536 536.332 242.817 537.196 243.267C537.663 243.025 538.061 242.505 538.217 241.796C538.494 240.602 538.044 239.321 537.179 238.871ZM545.326 251.09C547.747 250.692 549.615 247.94 549.615 244.582C549.615 241.225 547.747 238.473 545.326 238.075C542.904 238.473 541.036 241.225 541.036 244.582C541.036 247.94 542.904 250.692 545.326 251.09Z" fill="#EBEEF2"/>
<path fill-rule="evenodd" clip-rule="evenodd" d="M545.775 215.957C546.207 215.974 546.657 216.008 547.089 216.06V216.078C545.913 218.103 544.91 220.197 544.097 222.412C543.284 224.61 542.679 226.912 542.263 229.335C542.194 229.733 541.9 229.975 541.606 229.889C541.312 229.802 541.139 229.404 541.191 229.023C541.624 226.514 542.264 224.108 543.111 221.789C543.837 219.747 544.737 217.826 545.775 215.957ZM558.245 221.824C558.591 222.187 558.937 222.551 559.265 222.931H559.248C557.397 223.641 555.668 224.558 554.042 225.7C552.434 226.843 550.911 228.227 549.528 229.854C549.303 230.114 548.957 230.079 548.767 229.785C548.577 229.473 548.594 229.023 548.819 228.764C550.272 227.068 551.845 225.631 553.54 224.42C555.028 223.381 556.585 222.516 558.245 221.824ZM565.769 236.396C565.89 236.95 566.011 237.521 566.115 238.092H566.097C564.299 237.21 562.5 236.586 560.666 236.24C558.85 235.894 557.034 235.825 555.184 236.033C554.89 236.067 554.613 235.773 554.596 235.375C554.578 234.977 554.786 234.613 555.097 234.579C557.017 234.354 558.919 234.423 560.822 234.787C562.482 235.115 564.126 235.652 565.769 236.396ZM565.457 254.084C565.319 254.638 565.163 255.192 564.99 255.728C564.99 255.728 564.99 255.711 564.973 255.711C563.901 253.582 562.725 251.661 561.393 249.947C560.078 248.234 558.625 246.746 557.052 245.482C556.792 245.275 556.706 244.825 556.861 244.478C557.017 244.132 557.346 244.028 557.605 244.236C559.265 245.569 560.77 247.126 562.154 248.909C563.347 250.467 564.454 252.197 565.457 254.084ZM557.432 268.154C557.449 265.835 557.328 263.568 557.034 261.37C556.706 258.843 556.169 256.386 555.408 254.015C555.287 253.651 554.976 253.478 554.699 253.634C554.423 253.79 554.301 254.222 554.405 254.586C555.132 256.853 555.633 259.207 555.962 261.63C556.273 264.053 556.394 266.545 556.325 269.106V269.124C556.688 268.795 557.069 268.483 557.432 268.154ZM544.754 273.208C544.322 273.191 543.872 273.156 543.44 273.104V273.087C544.616 271.062 545.619 268.968 546.432 266.753C547.245 264.555 547.85 262.253 548.265 259.83C548.334 259.432 548.628 259.189 548.922 259.276C549.216 259.363 549.389 259.761 549.338 260.141C548.905 262.651 548.265 265.057 547.418 267.376C546.674 269.435 545.792 271.356 544.754 273.208ZM532.284 267.358C531.938 266.995 531.592 266.631 531.263 266.251H531.281C533.131 265.541 534.861 264.624 536.487 263.482C538.095 262.339 539.617 260.955 541.001 259.328C541.226 259.068 541.572 259.103 541.762 259.397C541.952 259.709 541.935 260.159 541.71 260.418C540.257 262.114 538.683 263.551 536.988 264.762C535.501 265.801 533.927 266.666 532.284 267.358ZM524.76 252.786C524.639 252.232 524.518 251.661 524.414 251.09H524.431C526.23 251.972 528.029 252.595 529.862 252.942C531.678 253.288 533.494 253.357 535.345 253.149C535.639 253.115 535.916 253.409 535.933 253.807C535.95 254.205 535.743 254.568 535.432 254.603C533.512 254.828 531.609 254.759 529.707 254.395C528.046 254.067 526.403 253.53 524.76 252.786ZM525.071 235.098C525.21 234.544 525.365 233.99 525.538 233.454C525.538 233.454 525.538 233.471 525.556 233.471C526.628 235.6 527.804 237.521 529.136 239.234C530.45 240.948 531.903 242.436 533.477 243.7C533.737 243.907 533.823 244.357 533.667 244.703C533.512 245.05 533.183 245.153 532.924 244.946C531.263 243.613 529.758 242.056 528.375 240.273C527.181 238.715 526.074 236.985 525.071 235.098ZM533.097 221.027C533.079 223.347 533.2 225.614 533.494 227.812C533.823 230.339 534.359 232.796 535.12 235.167C535.241 235.531 535.553 235.704 535.829 235.548C536.106 235.392 536.227 234.96 536.123 234.596C535.397 232.329 534.895 229.975 534.567 227.552C534.255 225.129 534.134 222.637 534.204 220.076V220.058C533.823 220.37 533.46 220.699 533.097 221.027Z" fill="#BCC1C6"/>
<path fill-rule="evenodd" clip-rule="evenodd" d="M543.457 228.366C550.15 228.366 555.581 235.635 555.581 244.6C555.581 253.565 550.15 260.834 543.457 260.834C536.763 260.834 531.332 253.565 531.332 244.6C531.332 235.635 536.763 228.366 543.457 228.366ZM549.527 255.711C550.323 254.949 550.496 253.461 549.925 252.405C549.718 252.024 549.441 251.748 549.147 251.592C549.008 251.661 548.887 251.765 548.766 251.886C547.971 252.648 547.798 254.136 548.369 255.192C548.576 255.572 548.853 255.849 549.147 256.005C549.268 255.936 549.406 255.832 549.527 255.711ZM552.226 243.267C553.09 242.817 553.54 241.536 553.263 240.342C553.09 239.65 552.71 239.131 552.243 238.871C551.378 239.321 550.928 240.602 551.205 241.796C551.378 242.488 551.759 243.007 552.226 243.267ZM544.131 230.996C543.474 231.343 543.024 232.191 543.024 233.194C543.024 234.198 543.491 235.046 544.131 235.392C544.788 235.046 545.238 234.198 545.238 233.194C545.255 232.208 544.788 231.343 544.131 230.996ZM539.133 251.609C538.838 251.765 538.562 252.042 538.354 252.423C537.783 253.478 537.956 254.949 538.752 255.728C538.873 255.849 539.011 255.936 539.133 256.022C539.427 255.867 539.703 255.59 539.911 255.209C540.482 254.153 540.309 252.682 539.513 251.903C539.409 251.782 539.271 251.678 539.133 251.609ZM536.037 238.871C535.57 239.113 535.172 239.633 535.016 240.342C534.722 241.536 535.189 242.817 536.054 243.267C536.521 243.025 536.919 242.506 537.074 241.796C537.368 240.602 536.901 239.321 536.037 238.871ZM544.183 251.09C546.604 250.692 548.472 247.94 548.472 244.582C548.472 241.225 546.604 238.473 544.183 238.075C541.761 238.473 539.894 241.225 539.894 244.582C539.894 247.94 541.761 250.692 544.183 251.09Z" fill="#A5AAAF"/>
<path fill-rule="evenodd" clip-rule="evenodd" d="M545.931 228.366C552.625 228.366 558.056 235.635 558.056 244.6C558.056 253.565 552.625 260.834 545.931 260.834C539.238 260.834 533.807 253.565 533.807 244.6C533.789 235.635 539.22 228.366 545.931 228.366ZM550.67 255.711C551.466 254.949 551.639 253.461 551.068 252.405C550.861 252.024 550.584 251.748 550.29 251.592C550.151 251.661 550.03 251.765 549.909 251.886C549.114 252.648 548.941 254.136 549.511 255.192C549.719 255.572 549.996 255.849 550.29 256.005C550.411 255.936 550.549 255.832 550.67 255.711ZM553.368 243.267C554.233 242.817 554.683 241.536 554.406 240.342C554.233 239.65 553.853 239.131 553.386 238.871C552.521 239.321 552.071 240.602 552.348 241.796C552.504 242.488 552.901 243.007 553.368 243.267ZM545.274 230.996C544.617 231.343 544.167 232.191 544.167 233.194C544.167 234.198 544.634 235.046 545.274 235.392C545.931 235.046 546.381 234.198 546.381 233.194C546.398 232.208 545.931 231.343 545.274 230.996ZM540.275 251.609C539.981 251.765 539.705 252.042 539.497 252.423C538.926 253.478 539.099 254.949 539.895 255.728C540.016 255.849 540.154 255.936 540.275 256.022C540.569 255.867 540.846 255.59 541.054 255.209C541.624 254.153 541.451 252.682 540.656 251.903C540.535 251.782 540.414 251.678 540.275 251.609ZM537.179 238.871C536.712 239.113 536.315 239.633 536.159 240.342C535.865 241.536 536.332 242.817 537.197 243.267C537.664 243.025 538.061 242.506 538.217 241.796C538.494 240.602 538.044 239.321 537.179 238.871ZM545.326 251.09C547.747 250.692 549.615 247.94 549.615 244.582C549.615 241.225 547.747 238.473 545.326 238.075C542.904 238.473 541.036 241.225 541.036 244.582C541.036 247.94 542.904 250.692 545.326 251.09Z" fill="#EBEEF2"/>
<path fill-rule="evenodd" clip-rule="evenodd" d="M569.747 233.35C568.641 229.526 567.049 225.943 565.112 222.897C563.123 219.747 561.082 218.068 559.768 218.103C559.768 218.086 556.706 218.103 556.568 218.103C555.79 218.138 555.305 218.778 555.323 220.076L555.444 228.539C555.461 229.301 555.686 230.235 556.084 230.806C557.364 232.606 558.592 235.22 559.232 237.694C559.941 240.135 560.235 243.198 560.131 245.69C560.096 246.469 560.373 247.386 560.736 247.958L564.697 254.534C565.043 255.123 565.424 255.4 565.804 255.4C566.375 255.4 568.537 255.4 569.073 255.4C570.076 254.309 571.235 249.463 571.252 245.327C571.287 241.312 570.751 237.227 569.747 233.35Z" fill="#666666"/>
<path fill-rule="evenodd" clip-rule="evenodd" d="M562.5 237.677C563.209 240.117 563.503 243.181 563.399 245.673C563.364 246.452 563.641 247.369 564.004 247.94L567.965 254.517C569.591 257.217 571.701 253.253 571.718 246.607C571.736 243.025 571.286 238.612 570.041 234.008V233.991V233.973C568.795 229.37 567.014 225.614 565.284 222.88C562.067 217.809 558.556 216.58 558.608 220.059L558.729 228.522C558.746 229.283 558.971 230.218 559.369 230.789C560.632 232.589 561.86 235.185 562.5 237.677Z" fill="#808080"/>
<path fill-rule="evenodd" clip-rule="evenodd" d="M545.93 230.875H550.825V235.583H545.93C544.962 235.583 544.166 234.527 544.166 233.229C544.166 231.931 544.944 230.875 545.93 230.875Z" fill="#A5AAAF"/>
<path fill-rule="evenodd" clip-rule="evenodd" d="M550.825 235.583C551.793 235.583 552.589 234.527 552.589 233.229C552.589 231.931 551.793 230.875 550.825 230.875C549.856 230.875 549.061 231.931 549.061 233.229C549.061 234.527 549.839 235.583 550.825 235.583Z" fill="#EBEEF2"/>
<path fill-rule="evenodd" clip-rule="evenodd" d="M537.68 238.768H542.575V243.475H537.68C536.712 243.475 535.916 242.419 535.916 241.121C535.916 239.823 536.712 238.768 537.68 238.768Z" fill="#A5AAAF"/>
<path fill-rule="evenodd" clip-rule="evenodd" d="M542.575 243.475C543.543 243.475 544.339 242.419 544.339 241.121C544.339 239.823 543.543 238.768 542.575 238.768C541.606 238.768 540.811 239.823 540.811 241.121C540.811 242.419 541.606 243.475 542.575 243.475Z" fill="#EBEEF2"/>
<path fill-rule="evenodd" clip-rule="evenodd" d="M553.938 238.768H558.833V243.475H553.938C552.969 243.475 552.174 242.419 552.174 241.121C552.174 239.823 552.969 238.768 553.938 238.768Z" fill="#A5AAAF"/>
<path fill-rule="evenodd" clip-rule="evenodd" d="M558.833 243.475C559.801 243.475 560.597 242.419 560.597 241.121C560.597 239.823 559.801 238.768 558.833 238.768C557.864 238.768 557.068 239.823 557.068 241.121C557.068 242.419 557.864 243.475 558.833 243.475Z" fill="#EBEEF2"/>
<path fill-rule="evenodd" clip-rule="evenodd" d="M540.793 251.436H545.688V256.144H540.793C539.825 256.144 539.029 255.088 539.029 253.79C539.029 252.492 539.825 251.436 540.793 251.436Z" fill="#A5AAAF"/>
<path d="M545.688 256.144C546.662 256.144 547.452 255.09 547.452 253.79C547.452 252.49 546.662 251.436 545.688 251.436C544.714 251.436 543.924 252.49 543.924 253.79C543.924 255.09 544.714 256.144 545.688 256.144Z" fill="#EBEEF2"/>
<path fill-rule="evenodd" clip-rule="evenodd" d="M550.895 251.436H555.79V256.144H550.895C549.926 256.144 549.131 255.088 549.131 253.79C549.131 252.492 549.909 251.436 550.895 251.436Z" fill="#A5AAAF"/>
<path fill-rule="evenodd" clip-rule="evenodd" d="M555.79 256.144C556.758 256.144 557.554 255.088 557.554 253.79C557.554 252.492 556.758 251.436 555.79 251.436C554.821 251.436 554.025 252.492 554.025 253.79C554.025 255.088 554.804 256.144 555.79 256.144Z" fill="#EBEEF2"/>
<path fill-rule="evenodd" clip-rule="evenodd" d="M259.663 184.822C260.615 184.372 261.739 184.787 262.171 185.739C262.621 186.691 262.206 187.816 261.255 188.249L240.344 198.027C239.393 198.477 238.268 198.062 237.836 197.11C237.386 196.158 237.801 195.033 238.753 194.6L259.663 184.822ZM261.445 192.939L240.534 202.717C239.583 203.167 239.185 204.292 239.617 205.227C240.067 206.179 241.191 206.577 242.125 206.144L263.036 196.366C263.987 195.916 264.385 194.791 263.953 193.856C263.503 192.904 262.379 192.489 261.445 192.939ZM263.209 201.039C264.16 200.589 265.285 201.004 265.717 201.956C266.167 202.908 265.752 204.033 264.8 204.465L243.89 214.244C242.938 214.694 241.814 214.278 241.382 213.327C240.932 212.375 241.347 211.25 242.298 210.817L263.209 201.039Z" fill="#666666"/>
<path fill-rule="evenodd" clip-rule="evenodd" d="M252.505 194.133L248.855 194.929C246.762 195.379 245.431 197.473 245.88 199.567L251.778 226.48C252.228 228.574 254.321 229.907 256.413 229.457L260.063 228.66C262.156 228.21 263.488 226.116 263.038 224.022L257.14 197.11C256.69 194.998 254.597 193.666 252.505 194.133Z" fill="#666666"/>
<path d="M250.832 185.605L246.777 186.494L248.631 194.963L252.686 194.075L250.832 185.605Z" fill="#666666"/>
<path fill-rule="evenodd" clip-rule="evenodd" d="M252.417 188.975L246.796 190.204C245.24 190.55 243.7 189.547 243.354 188.006L243.285 187.712C242.939 186.154 243.942 184.614 245.482 184.268L251.103 183.039C252.66 182.693 254.199 183.697 254.545 185.237L254.614 185.531C254.96 187.089 253.957 188.629 252.417 188.975Z" fill="#666666"/>
<path fill-rule="evenodd" clip-rule="evenodd" d="M257.728 184.562L240.138 188.422C239.325 188.595 238.512 188.076 238.339 187.279L238.027 185.86C237.854 185.047 238.373 184.233 239.169 184.06L256.759 180.201C257.572 180.028 258.385 180.547 258.558 181.343L258.869 182.762C259.059 183.576 258.54 184.389 257.728 184.562Z" fill="#666666"/>
<path fill-rule="evenodd" clip-rule="evenodd" d="M253.421 186.016L244.635 187.937C242.715 188.352 240.795 187.124 240.38 185.202L240.034 183.628C239.619 181.706 240.847 179.785 242.767 179.37L251.553 177.449C253.473 177.034 255.393 178.262 255.808 180.183L256.154 181.758C256.569 183.679 255.341 185.583 253.421 186.016Z" fill="#666666"/>
<path fill-rule="evenodd" clip-rule="evenodd" d="M263.59 217.307L248.473 220.613C247.573 220.803 246.674 220.232 246.484 219.332C246.294 218.432 246.864 217.532 247.764 217.342L262.88 214.036C263.78 213.846 264.679 214.417 264.869 215.317C265.06 216.217 264.489 217.099 263.59 217.307Z" fill="#666666"/>
<path fill-rule="evenodd" clip-rule="evenodd" d="M256.948 223.105C254.734 223.589 253.316 225.805 253.8 228.02L257.052 242.904C257.536 245.119 259.75 246.538 261.964 246.054C264.178 245.569 265.596 243.354 265.112 241.139L261.86 226.255C261.376 224.039 259.162 222.62 256.948 223.105Z" fill="#666666"/>
<path fill-rule="evenodd" clip-rule="evenodd" d="M260.097 237.521C256.984 238.196 255.012 241.294 255.687 244.41C256.361 247.525 259.457 249.498 262.571 248.823C265.684 248.148 267.656 245.05 266.981 241.935C266.289 238.82 263.211 236.847 260.097 237.521Z" fill="#333333"/>
<path fill-rule="evenodd" clip-rule="evenodd" d="M260.755 240.516C259.284 240.844 258.351 242.298 258.679 243.769C259.008 245.24 260.461 246.175 261.931 245.846C263.401 245.517 264.335 244.064 264.006 242.592C263.678 241.121 262.225 240.187 260.755 240.516Z" fill="#E5E5E5"/>
<path fill-rule="evenodd" clip-rule="evenodd" d="M237.924 190.118C236.887 190.187 235.97 189.408 235.901 188.37C235.832 187.331 236.61 186.414 237.648 186.345L260.34 184.666C261.378 184.597 262.294 185.375 262.364 186.414C262.433 187.452 261.654 188.37 260.617 188.439L237.924 190.118ZM239.689 198.217C238.651 198.287 237.734 197.508 237.665 196.469C237.596 195.431 238.374 194.514 239.412 194.444L262.104 192.766C263.142 192.696 264.059 193.475 264.128 194.514C264.197 195.552 263.419 196.469 262.381 196.539L239.689 198.217ZM241.47 206.317C240.432 206.386 239.516 205.607 239.446 204.569C239.377 203.531 240.156 202.613 241.193 202.544L263.886 200.865C264.923 200.796 265.84 201.575 265.909 202.613C265.978 203.652 265.2 204.569 264.162 204.638L241.47 206.317ZM243.234 214.434C242.196 214.503 241.28 213.724 241.211 212.686C241.141 211.648 241.92 210.73 242.957 210.661L265.65 208.982C266.687 208.913 267.604 209.692 267.673 210.73C267.743 211.769 266.964 212.686 265.926 212.755L243.234 214.434Z" fill="#808080"/>
<path fill-rule="evenodd" clip-rule="evenodd" d="M268.762 214.296L242.524 220.042C241.694 220.232 240.846 219.696 240.673 218.848C240.483 218.017 241.019 217.169 241.867 216.996L268.105 211.25C268.935 211.059 269.782 211.596 269.955 212.444C270.128 213.292 269.592 214.123 268.762 214.296Z" fill="#666666"/>
<path fill-rule="evenodd" clip-rule="evenodd" d="M261.705 182.053L235.467 187.799C234.637 187.989 233.789 187.452 233.616 186.604C233.426 185.774 233.962 184.926 234.81 184.753L261.048 179.007C261.878 178.816 262.726 179.353 262.899 180.201C263.071 181.032 262.535 181.862 261.705 182.053Z" fill="#666666"/>
<path d="M294.862 237.072H233.582V250.069H294.862V237.072Z" fill="#666666"/>
<path d="M272.481 261.526C280.6 261.526 287.182 253.94 287.182 244.583C287.182 235.225 280.6 227.639 272.481 227.639C264.361 227.639 257.779 235.225 257.779 244.583C257.779 253.94 264.361 261.526 272.481 261.526Z" fill="#666666"/>
<path fill-rule="evenodd" clip-rule="evenodd" d="M293.046 233.35C291.939 229.526 290.4 225.943 288.463 222.897C286.474 219.747 284.433 218.068 283.118 218.103C283.118 218.086 281.078 218.103 280.939 218.103C280.161 218.138 279.677 218.778 279.694 220.076L279.815 228.539C279.832 229.301 280.057 230.235 280.455 230.806C281.735 232.606 282.963 235.22 283.603 237.694C284.312 240.135 284.606 243.198 284.502 245.69C284.468 246.469 284.744 247.386 285.107 247.958L289.068 254.534C289.414 255.123 289.795 255.4 290.175 255.4C290.746 255.4 291.853 255.4 292.389 255.4C293.392 254.309 294.551 249.463 294.568 245.327C294.568 241.312 294.032 237.227 293.046 233.35Z" fill="#666666"/>
<path fill-rule="evenodd" clip-rule="evenodd" d="M267.481 215.957C279.294 215.957 288.876 228.782 288.876 244.6C288.876 260.419 279.294 273.243 267.481 273.243C255.668 273.243 246.086 260.419 246.086 244.6C246.086 228.782 255.668 215.957 267.481 215.957ZM274.953 255.711C275.748 254.95 275.921 253.461 275.351 252.406C275.143 252.025 274.866 251.748 274.572 251.592C274.434 251.661 274.313 251.765 274.192 251.886C273.396 252.648 273.223 254.136 273.794 255.192C274.002 255.573 274.278 255.85 274.572 256.005C274.711 255.936 274.832 255.832 274.953 255.711ZM277.651 243.267C278.516 242.818 278.966 241.537 278.689 240.343C278.516 239.65 278.135 239.131 277.668 238.871C276.804 239.321 276.354 240.602 276.631 241.796C276.804 242.489 277.184 243.008 277.651 243.267ZM269.557 230.997C268.899 231.343 268.45 232.191 268.45 233.195C268.45 234.199 268.917 235.047 269.557 235.393C270.214 235.047 270.663 234.199 270.663 233.195C270.681 232.208 270.214 231.343 269.557 230.997ZM264.558 251.609C264.264 251.765 263.987 252.042 263.78 252.423C263.209 253.479 263.382 254.95 264.178 255.729C264.299 255.85 264.437 255.936 264.558 256.023C264.852 255.867 265.129 255.59 265.336 255.209C265.907 254.154 265.734 252.683 264.939 251.904C264.835 251.783 264.696 251.679 264.558 251.609ZM261.479 238.871C261.012 239.114 260.615 239.633 260.459 240.343C260.165 241.537 260.632 242.818 261.497 243.267C261.964 243.025 262.361 242.506 262.517 241.796C262.794 240.602 262.327 239.321 261.479 238.871ZM269.608 251.09C272.03 250.692 273.898 247.94 273.898 244.583C273.898 241.225 272.03 238.473 269.608 238.075C267.187 238.473 265.319 241.225 265.319 244.583C265.319 247.94 267.187 250.692 269.608 251.09Z" fill="#A5AAAF"/>
<path fill-rule="evenodd" clip-rule="evenodd" d="M271.823 215.957C283.636 215.957 293.218 228.782 293.218 244.6C293.218 260.419 283.636 273.243 271.823 273.243C260.01 273.243 250.428 260.419 250.428 244.6C250.428 228.782 260.01 215.957 271.823 215.957ZM277.219 255.711C278.015 254.95 278.188 253.461 277.617 252.406C277.409 252.025 277.133 251.748 276.839 251.592C276.7 251.661 276.579 251.765 276.458 251.886C275.662 252.648 275.49 254.136 276.06 255.192C276.268 255.573 276.545 255.85 276.839 256.005C276.977 255.936 277.098 255.832 277.219 255.711ZM279.935 243.267C280.799 242.818 281.249 241.537 280.972 240.343C280.799 239.65 280.419 239.131 279.952 238.871C279.087 239.321 278.637 240.602 278.914 241.796C279.07 242.489 279.45 243.008 279.935 243.267ZM271.84 230.997C271.183 231.343 270.733 232.191 270.733 233.195C270.733 234.199 271.2 235.047 271.84 235.393C272.497 235.047 272.964 234.199 272.964 233.195C272.947 232.208 272.497 231.343 271.84 230.997ZM266.842 251.609C266.548 251.765 266.271 252.042 266.063 252.423C265.492 253.479 265.665 254.95 266.461 255.729C266.582 255.85 266.721 255.936 266.842 256.023C267.136 255.867 267.412 255.59 267.62 255.209C268.191 254.154 268.018 252.683 267.222 251.904C267.101 251.783 266.963 251.679 266.842 251.609ZM263.746 238.871C263.279 239.114 262.881 239.633 262.725 240.343C262.431 241.537 262.898 242.818 263.763 243.267C264.23 243.025 264.628 242.506 264.783 241.796C265.06 240.602 264.61 239.321 263.746 238.871ZM271.892 251.09C274.313 250.692 276.181 247.94 276.181 244.583C276.181 241.225 274.313 238.473 271.892 238.075C269.471 238.473 267.603 241.225 267.603 244.583C267.603 247.94 269.471 250.692 271.892 251.09Z" fill="#E9ECF0"/>
<path fill-rule="evenodd" clip-rule="evenodd" d="M272.326 215.957C272.758 215.974 273.208 216.009 273.64 216.061V216.078C272.464 218.103 271.461 220.197 270.648 222.413C269.835 224.611 269.23 226.912 268.815 229.335C268.745 229.733 268.451 229.976 268.157 229.889C267.863 229.803 267.69 229.405 267.742 229.024C268.175 226.514 268.815 224.109 269.662 221.789C270.406 219.747 271.305 217.826 272.326 215.957ZM284.813 221.824C285.159 222.188 285.505 222.551 285.834 222.932H285.816C283.966 223.641 282.236 224.559 280.61 225.701C279.002 226.843 277.48 228.228 276.096 229.855C275.871 230.114 275.525 230.08 275.335 229.785C275.145 229.474 275.162 229.024 275.387 228.764C276.84 227.068 278.414 225.632 280.109 224.42C281.596 223.382 283.153 222.516 284.813 221.824ZM292.337 236.397C292.458 236.95 292.579 237.522 292.683 238.093H292.666C290.867 237.21 289.068 236.587 287.235 236.241C285.419 235.895 283.603 235.825 281.752 236.033C281.458 236.068 281.181 235.774 281.164 235.375C281.147 234.977 281.354 234.614 281.665 234.579C283.585 234.354 285.488 234.424 287.39 234.787C289.034 235.116 290.694 235.652 292.337 236.397ZM292.008 254.084C291.87 254.638 291.714 255.192 291.541 255.729C291.541 255.729 291.541 255.711 291.524 255.711C290.452 253.582 289.276 251.661 287.944 249.948C286.629 248.235 285.177 246.746 283.603 245.483C283.343 245.275 283.257 244.825 283.412 244.479C283.568 244.133 283.897 244.029 284.156 244.237C285.816 245.569 287.321 247.127 288.705 248.91C289.916 250.467 291.005 252.198 292.008 254.084ZM283.983 268.155C284 265.836 283.879 263.569 283.585 261.371C283.257 258.844 282.72 256.386 281.959 254.015C281.838 253.652 281.527 253.479 281.25 253.634C280.974 253.79 280.853 254.223 280.956 254.586C281.683 256.854 282.184 259.207 282.513 261.63C282.824 264.053 282.945 266.545 282.876 269.107V269.124C283.257 268.795 283.637 268.484 283.983 268.155ZM271.322 273.209C270.89 273.191 270.44 273.157 270.008 273.105V273.087C271.184 271.063 272.187 268.968 273 266.753C273.813 264.555 274.418 262.253 274.834 259.83C274.903 259.432 275.197 259.19 275.491 259.276C275.785 259.363 275.958 259.761 275.906 260.142C275.473 262.651 274.834 265.057 273.986 267.376C273.242 269.436 272.36 271.357 271.322 273.209ZM258.852 267.359C258.506 266.995 258.16 266.632 257.832 266.251H257.849C259.7 265.542 261.429 264.624 263.055 263.482C264.664 262.34 266.186 260.955 267.569 259.328C267.794 259.069 268.14 259.103 268.33 259.398C268.521 259.709 268.503 260.159 268.278 260.419C266.826 262.115 265.252 263.551 263.557 264.763C262.069 265.801 260.495 266.667 258.852 267.359ZM251.328 252.786C251.207 252.233 251.086 251.661 250.982 251.09H251C252.798 251.973 254.597 252.596 256.431 252.942C258.247 253.288 260.063 253.357 261.913 253.15C262.208 253.115 262.484 253.409 262.502 253.807C262.519 254.206 262.311 254.569 262 254.604C260.08 254.829 258.178 254.759 256.275 254.396C254.615 254.067 252.971 253.531 251.328 252.786ZM251.64 235.099C251.778 234.545 251.934 233.991 252.107 233.454C252.107 233.454 252.107 233.472 252.124 233.472C253.196 235.6 254.372 237.522 255.704 239.235C257.019 240.948 258.472 242.437 260.046 243.7C260.305 243.908 260.391 244.358 260.236 244.704C260.08 245.05 259.751 245.154 259.492 244.946C257.832 243.614 256.327 242.056 254.943 240.273C253.732 238.716 252.643 236.985 251.64 235.099ZM259.665 221.028C259.648 223.347 259.769 225.614 260.063 227.812C260.391 230.339 260.928 232.797 261.689 235.168C261.81 235.531 262.121 235.704 262.398 235.549C262.674 235.393 262.796 234.96 262.692 234.597C261.965 232.329 261.464 229.976 261.135 227.553C260.824 225.13 260.703 222.638 260.772 220.076V220.059C260.391 220.37 260.028 220.699 259.665 221.028Z" fill="#BCC1C6"/>
<path fill-rule="evenodd" clip-rule="evenodd" d="M270.025 228.366C276.718 228.366 282.149 235.635 282.149 244.6C282.149 253.565 276.718 260.834 270.025 260.834C263.331 260.834 257.9 253.565 257.9 244.6C257.9 235.635 263.331 228.366 270.025 228.366ZM276.096 255.711C276.891 254.95 277.064 253.461 276.494 252.406C276.286 252.025 276.009 251.748 275.715 251.592C275.577 251.661 275.456 251.765 275.335 251.886C274.539 252.648 274.366 254.136 274.937 255.192C275.144 255.573 275.421 255.85 275.715 256.006C275.836 255.936 275.975 255.832 276.096 255.711ZM278.794 243.268C279.659 242.818 280.108 241.537 279.832 240.343C279.659 239.65 279.278 239.131 278.811 238.872C277.946 239.322 277.497 240.602 277.773 241.796C277.929 242.489 278.327 243.008 278.794 243.268ZM270.699 230.997C270.042 231.343 269.592 232.191 269.592 233.195C269.592 234.199 270.059 235.047 270.699 235.393C271.357 235.047 271.806 234.199 271.806 233.195C271.824 232.208 271.357 231.343 270.699 230.997ZM265.701 251.61C265.407 251.765 265.13 252.042 264.923 252.423C264.352 253.479 264.525 254.95 265.32 255.729C265.441 255.85 265.58 255.936 265.701 256.023C265.995 255.867 266.272 255.59 266.479 255.209C267.05 254.154 266.877 252.683 266.081 251.904C265.96 251.783 265.839 251.679 265.701 251.61ZM262.605 238.872C262.138 239.114 261.74 239.633 261.584 240.343C261.29 241.537 261.757 242.818 262.622 243.268C263.089 243.025 263.487 242.506 263.643 241.796C263.919 240.602 263.47 239.322 262.605 238.872ZM270.751 251.09C273.173 250.692 275.041 247.94 275.041 244.583C275.041 241.225 273.173 238.474 270.751 238.075C268.33 238.474 266.462 241.225 266.462 244.583C266.462 247.94 268.33 250.692 270.751 251.09Z" fill="#A5AAAF"/>
<path fill-rule="evenodd" clip-rule="evenodd" d="M272.48 228.366C279.173 228.366 284.604 235.635 284.604 244.6C284.604 253.565 279.173 260.834 272.48 260.834C265.786 260.834 260.355 253.565 260.355 244.6C260.355 235.635 265.786 228.366 272.48 228.366ZM277.219 255.711C278.015 254.95 278.188 253.461 277.617 252.406C277.409 252.025 277.133 251.748 276.838 251.592C276.7 251.661 276.579 251.765 276.458 251.886C275.662 252.648 275.489 254.136 276.06 255.192C276.268 255.573 276.544 255.85 276.838 256.006C276.977 255.936 277.098 255.832 277.219 255.711ZM279.934 243.268C280.799 242.818 281.249 241.537 280.972 240.343C280.799 239.65 280.419 239.131 279.952 238.872C279.087 239.322 278.637 240.602 278.914 241.796C279.07 242.489 279.45 243.008 279.934 243.268ZM271.84 230.997C271.183 231.343 270.733 232.191 270.733 233.195C270.733 234.199 271.2 235.047 271.84 235.393C272.497 235.047 272.964 234.199 272.964 233.195C272.947 232.208 272.497 231.343 271.84 230.997ZM266.841 251.61C266.547 251.765 266.271 252.042 266.063 252.423C265.492 253.479 265.665 254.95 266.461 255.729C266.582 255.85 266.72 255.936 266.841 256.023C267.135 255.867 267.412 255.59 267.62 255.209C268.191 254.154 268.018 252.683 267.222 251.904C267.101 251.783 266.963 251.679 266.841 251.61ZM263.745 238.872C263.278 239.114 262.881 239.633 262.725 240.343C262.431 241.537 262.898 242.818 263.763 243.268C264.23 243.025 264.628 242.506 264.783 241.796C265.06 240.602 264.61 239.322 263.745 238.872ZM271.892 251.09C274.313 250.692 276.181 247.94 276.181 244.583C276.181 241.225 274.313 238.474 271.892 238.075C269.47 238.474 267.602 241.225 267.602 244.583C267.602 247.94 269.47 250.692 271.892 251.09Z" fill="#EBEEF2"/>
<path fill-rule="evenodd" clip-rule="evenodd" d="M296.314 233.35C295.207 229.526 293.616 225.943 291.679 222.897C289.69 219.747 287.649 218.068 286.334 218.103C286.334 218.086 283.273 218.103 283.134 218.103C282.356 218.138 281.872 218.778 281.889 220.076L282.01 228.539C282.027 229.301 282.252 230.235 282.65 230.806C283.93 232.606 285.158 235.22 285.798 237.694C286.507 240.135 286.801 243.198 286.697 245.69C286.663 246.469 286.94 247.386 287.303 247.958L291.264 254.534C291.609 255.123 291.99 255.4 292.37 255.4C292.941 255.4 295.103 255.4 295.639 255.4C296.643 254.309 297.801 249.463 297.819 245.327C297.836 241.312 297.317 237.227 296.314 233.35Z" fill="#666666"/>
<path fill-rule="evenodd" clip-rule="evenodd" d="M289.068 237.678C289.777 240.118 290.071 243.181 289.967 245.673C289.933 246.452 290.209 247.369 290.573 247.941L294.533 254.517C296.159 257.217 298.269 253.254 298.287 246.608C298.304 243.025 297.854 238.612 296.609 234.008V233.991V233.974C295.364 229.37 293.582 225.615 291.853 222.88C288.636 217.809 285.124 216.58 285.176 220.059L285.297 228.522C285.315 229.284 285.54 230.218 285.937 230.789C287.2 232.589 288.428 235.185 289.068 237.678Z" fill="#808080"/>
<path fill-rule="evenodd" clip-rule="evenodd" d="M272.481 230.875H277.376V235.583H272.481C271.512 235.583 270.717 234.527 270.717 233.229C270.717 231.931 271.512 230.875 272.481 230.875Z" fill="#A5AAAF"/>
<path fill-rule="evenodd" clip-rule="evenodd" d="M277.375 235.583C278.344 235.583 279.14 234.527 279.14 233.229C279.14 231.931 278.344 230.875 277.375 230.875C276.407 230.875 275.611 231.931 275.611 233.229C275.611 234.527 276.407 235.583 277.375 235.583Z" fill="#EFF3F7"/>
<path fill-rule="evenodd" clip-rule="evenodd" d="M264.247 238.768H269.141V243.475H264.247C263.278 243.475 262.482 242.419 262.482 241.121C262.482 239.823 263.278 238.768 264.247 238.768Z" fill="#A5AAAF"/>
<path fill-rule="evenodd" clip-rule="evenodd" d="M269.141 243.475C270.11 243.475 270.905 242.419 270.905 241.121C270.905 239.823 270.11 238.768 269.141 238.768C268.173 238.768 267.377 239.823 267.377 241.121C267.377 242.419 268.173 243.475 269.141 243.475Z" fill="#EFF3F7"/>
<path fill-rule="evenodd" clip-rule="evenodd" d="M280.506 238.768H285.401V243.475H280.506C279.538 243.475 278.742 242.419 278.742 241.121C278.742 239.823 279.538 238.768 280.506 238.768Z" fill="#A5AAAF"/>
<path fill-rule="evenodd" clip-rule="evenodd" d="M285.401 243.475C286.369 243.475 287.165 242.419 287.165 241.121C287.165 239.823 286.369 238.768 285.401 238.768C284.432 238.768 283.637 239.823 283.637 241.121C283.637 242.419 284.432 243.475 285.401 243.475Z" fill="#EFF3F7"/>
<path fill-rule="evenodd" clip-rule="evenodd" d="M267.362 251.437H272.257V256.144H267.362C266.393 256.144 265.598 255.088 265.598 253.79C265.598 252.492 266.393 251.437 267.362 251.437Z" fill="#A5AAAF"/>
<path fill-rule="evenodd" clip-rule="evenodd" d="M272.256 256.144C273.225 256.144 274.021 255.088 274.021 253.79C274.021 252.492 273.225 251.437 272.256 251.437C271.288 251.437 270.492 252.492 270.492 253.79C270.492 255.088 271.288 256.144 272.256 256.144Z" fill="#EFF3F7"/>
<path fill-rule="evenodd" clip-rule="evenodd" d="M277.444 251.437H282.339V256.144H277.444C276.475 256.144 275.68 255.088 275.68 253.79C275.68 252.492 276.475 251.437 277.444 251.437Z" fill="#A5AAAF"/>
<path fill-rule="evenodd" clip-rule="evenodd" d="M282.338 256.144C283.307 256.144 284.103 255.088 284.103 253.79C284.103 252.492 283.307 251.437 282.338 251.437C281.37 251.437 280.574 252.492 280.574 253.79C280.574 255.088 281.37 256.144 282.338 256.144Z" fill="#EFF3F7"/>
<path fill-rule="evenodd" clip-rule="evenodd" d="M599.996 136.5C588.01 132.918 575.488 130.149 562.568 128.02C542.159 114.209 522.753 98.7711 501.323 86.5869C490.461 80.4083 478.579 75.4585 466.281 73.2951C422.021 65.455 381.289 64.3301 340.211 65.1089C300.067 65.8877 251.224 68.9684 222.582 77.9853C180.795 91.1387 148.261 114.261 117.094 136.673C82.5362 142.264 48.7573 152.648 22.9863 165.749C22.1042 166.199 21.3259 167.151 20.9627 167.965L13.2141 185.012L8.68256 189.494C7.19511 190.966 6.57246 192.644 6.3995 194.358L4.42776 212.755C3.25164 214.192 2.09281 215.628 0.916685 217.047C0.397807 217.67 0.0691838 218.466 0 219.488L0.501582 227.085C0.657246 229.491 2.11011 232.97 4.80827 232.97H6.93567L7.33348 247.681C5.29256 247.681 4.15103 249.065 4.15103 250.969L4.16832 260.09C4.16832 262.08 5.22338 263.309 7.36807 263.309H232.267C239.289 262.357 238.338 248.927 241.469 230.599C245.568 206.594 260.131 182.104 283.187 182.104C310.964 182.104 323.711 217.913 323.711 241.087C323.711 247.784 322.725 254.205 320.944 260.107C320.373 261.994 321.411 263.326 322.881 263.326H505.249C512.271 262.374 511.32 248.944 514.451 230.616C518.55 206.611 533.113 182.122 556.168 182.122C583.946 182.122 596.693 217.93 596.693 241.104C596.693 243.856 596.52 246.556 596.208 249.204C595.88 251.852 596.9 252.232 598.094 251.904L607.226 249.429C609.232 248.892 610.53 248.044 611.931 246.556L616.03 242.246C617.102 241.121 618.105 239.217 618.105 236.448L618.122 225.77L621.305 215.074C621.945 212.894 622.273 210.626 622.464 208.238L622.931 202.319C623.138 199.792 622.516 197.629 621.685 195.777L618.174 187.885L615.874 174.333L617.396 171.807C617.984 170.837 618.33 169.695 618.019 168.501L614.871 156.403C614.663 155.573 614.041 155.071 613.297 154.655L610.08 152.89C608.402 147.906 606.136 143.008 602.625 138.3C602.089 137.487 601.017 136.812 599.996 136.5Z" fill="#226FBE"/>
<path fill-rule="evenodd" clip-rule="evenodd" d="M116.954 188.3L125.775 192.42L125.55 193.458L116.02 192.748C114.982 192.679 114.066 193.458 113.997 194.496C113.927 195.344 114.429 196.089 115.173 196.4L120.569 198.927L120.05 201.281L114.239 200.848C113.201 200.779 112.284 201.558 112.215 202.596C112.146 203.444 112.647 204.188 113.391 204.5L118.788 207.027L118.269 209.38L112.457 208.948C111.419 208.878 110.503 209.657 110.434 210.696C110.416 210.921 110.434 211.128 110.503 211.336L110.036 211.232C109.206 211.042 108.358 211.578 108.185 212.426C107.995 213.257 108.531 214.105 109.379 214.278L113.305 215.144C113.287 215.196 113.27 215.247 113.27 215.282C113.08 216.182 113.651 217.082 114.55 217.272L116.47 217.688L116.383 218.051C115.778 218.051 114.931 218.051 114.844 218.051C114.602 218.051 114.394 218.12 114.221 218.259C111.627 216.753 108.756 215.922 105.746 215.922C105.02 215.922 104.294 215.974 103.584 216.061C102.875 215.957 102.149 215.922 101.422 215.922C89.6093 215.922 80.0273 228.747 80.0273 244.566C80.0273 260.384 89.6093 273.209 101.422 273.209C102.149 273.209 102.875 273.157 103.584 273.07C104.294 273.174 105.02 273.209 105.746 273.209C109.794 273.209 113.581 271.703 116.799 269.09C116.92 268.986 117.041 268.882 117.162 268.778C117.266 268.692 117.352 268.605 117.456 268.536L117.542 268.449L117.56 268.432L117.577 268.415L117.594 268.397L117.698 268.311L117.715 268.293L117.733 268.276C121.14 265.195 123.838 260.817 125.446 255.694C125.481 255.573 125.516 255.469 125.55 255.348H126.242H126.259C126.83 255.348 128.923 255.348 129.511 255.348C130.531 255.365 131.535 253.323 131.95 250.052H161.543V237.054H131.241C131.033 236.05 130.791 235.029 130.514 233.991V233.974V233.956C129.511 230.27 128.162 227.103 126.778 224.593L127.747 220.163L129.667 220.578C130.566 220.768 131.465 220.197 131.656 219.297C131.673 219.245 131.673 219.193 131.673 219.142L135.599 220.007C136.429 220.197 137.277 219.661 137.45 218.813C137.64 217.982 137.104 217.134 136.256 216.961L128.767 215.317L129.061 213.949L134.873 214.382C135.911 214.451 136.827 213.673 136.896 212.634C136.966 211.786 136.464 211.042 135.72 210.73L130.324 208.204L130.843 205.85L136.654 206.282C137.692 206.352 138.609 205.573 138.678 204.534C138.747 203.686 138.245 202.925 137.502 202.631L132.105 200.104L132.227 199.515C132.365 198.892 132.348 198.287 132.192 197.698L138.418 198.165C139.456 198.235 140.373 197.456 140.442 196.417C140.511 195.569 140.01 194.808 139.266 194.514L130.445 190.395L130.532 189.997L131.31 190.17C132.192 190.36 133.074 190.118 133.731 189.598L140.183 190.066C141.22 190.135 142.137 189.356 142.206 188.318C142.224 188.093 142.206 187.868 142.137 187.643L142.621 187.747C143.452 187.937 144.299 187.4 144.472 186.552C144.662 185.722 144.126 184.874 143.279 184.701L138.055 183.558C138.453 181.637 137.242 179.733 135.322 179.318L126.536 177.397C124.616 176.982 122.714 178.193 122.281 180.097L117.058 178.955C116.228 178.764 115.38 179.301 115.207 180.149C115.017 180.98 115.553 181.828 116.401 182.001L119.255 182.624L119.237 182.728C119.064 183.541 119.583 184.354 120.379 184.528L122.281 184.943L117.767 184.614C116.729 184.545 115.813 185.324 115.743 186.362C115.709 187.245 116.21 188.006 116.954 188.3ZM116.799 269.107L117.162 268.795C117.041 268.899 116.92 269.003 116.799 269.107Z" fill="#989898"/>
<path fill-rule="evenodd" clip-rule="evenodd" d="M599.996 136.5C588.01 132.918 575.488 130.149 562.568 128.02C542.159 114.209 522.753 98.771 501.323 86.5869C490.461 80.4083 478.579 75.4585 466.281 73.2951C422.021 65.455 381.289 64.3301 340.211 65.1089C300.067 65.8877 251.223 68.9684 222.581 77.9853C180.794 91.1387 148.261 114.261 117.093 136.673C100.074 139.425 83.2625 143.337 67.5059 148.165H608.316C606.863 144.808 605.047 141.502 602.66 138.3C602.089 137.487 601.017 136.812 599.996 136.5Z" fill="#226FBE"/>
<path fill-rule="evenodd" clip-rule="evenodd" d="M13.5084 184.389L13.2317 185.012L8.70014 189.495C7.21269 190.966 6.59004 192.644 6.41708 194.358L4.44534 212.755C3.26922 214.192 2.11039 215.628 0.934263 217.047C0.415385 217.67 0.0867619 218.466 0.0175781 219.488L0.519161 227.085C0.674824 229.491 2.12768 232.97 4.82585 232.97H6.95325L7.35106 247.681C5.31014 247.681 4.16861 249.065 4.16861 250.969L4.1859 260.09C4.1859 262.08 5.24095 263.309 7.38565 263.309H218.448C181.348 235.254 194.96 196.504 218.275 178.851C236.09 165.351 195.22 167.843 146.774 173.382C95.9928 179.18 36.5985 188.335 13.5084 184.389Z" fill="#226FBE"/>
<path fill-rule="evenodd" clip-rule="evenodd" d="M501.322 263.292H505.266C512.288 262.34 511.337 248.909 514.467 230.581C518.566 206.576 533.13 182.087 556.185 182.087C583.962 182.087 596.709 217.895 596.709 241.069C596.709 243.821 596.536 246.521 596.225 249.169C595.897 251.817 596.917 252.198 598.11 251.869L603.732 250.346C604.181 247.006 604.423 243.562 604.423 240.048C604.423 209.328 587.006 173.52 555.51 173.52C524.032 173.52 510.939 201.142 506.338 228.227C503.432 245.258 505.093 258.549 501.322 263.292Z" fill="#2F7DCE"/>
<path fill-rule="evenodd" clip-rule="evenodd" d="M228.082 263.292H232.268C239.29 262.34 238.339 248.909 241.469 230.581C245.568 206.576 260.131 182.087 283.187 182.087C310.964 182.087 323.711 217.895 323.711 241.069C323.711 247.767 322.725 254.188 320.944 260.09C320.373 261.976 321.411 263.309 322.881 263.309H327.966C327.845 262.79 327.862 262.167 328.07 261.492C330.076 254.828 331.183 247.594 331.183 240.048C331.183 209.328 313.766 173.52 282.27 173.52C250.792 173.52 237.699 201.142 233.081 228.227C230.192 245.258 231.853 258.549 228.082 263.292Z" fill="#2F7DCE"/>
<path fill-rule="evenodd" clip-rule="evenodd" d="M599.997 136.501C588.011 132.918 575.489 130.149 562.569 128.02L530.727 137.02H312.902L294.032 136.431L305.482 132.001L311.795 126.012L348.635 86.9852C352.216 83.4026 357.007 78.5394 368.059 75.5106C388.831 69.8166 431.223 70.3012 478.614 76.376C474.584 75.078 470.485 74.0222 466.334 73.278C422.074 65.438 381.342 64.313 340.264 65.0918L338.379 65.1264L336.476 65.161C305.344 65.8706 269.645 67.9994 242.352 73.1742C241.245 73.3819 240.138 73.6069 239.048 73.8145L237.44 74.1434L235.848 74.4895L234.275 74.8357L232.735 75.1991L231.213 75.5626C230.712 75.6837 230.21 75.8049 229.726 75.9433L228.256 76.3241L226.82 76.7221L225.402 77.1202C224.935 77.2586 224.468 77.3971 224.018 77.5356C223.568 77.674 223.101 77.8125 222.669 77.9509C180.882 91.1043 148.348 114.226 117.181 136.639C104.987 138.802 93.0531 141.295 81.3784 144.306C59.8449 150.017 39.574 157.459 22.8835 165.801L22.8489 165.819H22.8316L22.8143 165.836L22.797 165.853H22.7797H22.7624L22.7451 165.871H22.7278L22.7105 165.888L22.6932 165.905H22.6759L22.6586 165.922H22.6413L22.624 165.94L22.6067 165.957L22.5894 165.974L22.5721 165.992L22.5548 166.009L22.5375 166.026L22.5202 166.044L22.5029 166.061L22.4857 166.078L22.4684 166.096H22.4511L22.4338 166.113L22.4165 166.13H22.3992L22.3819 166.147L22.3646 166.165L22.3473 166.182L22.33 166.199H22.3127L22.2954 166.217L22.2781 166.234L22.2608 166.251L22.2435 166.269L22.2262 166.286L22.2089 166.303L22.1916 166.321L22.1743 166.338L22.157 166.355L22.1397 166.372L22.1224 166.39L22.1051 166.407L22.0878 166.424L22.0705 166.442L22.0533 166.459L22.036 166.476L22.0187 166.494L22.0014 166.511L21.9841 166.528L21.9668 166.546L21.9495 166.563L21.9322 166.58L21.9149 166.597L21.8976 166.615L21.8803 166.632L21.863 166.649L21.8457 166.667L26.0486 172.343L35.1809 172.361L169.951 173.676L224.26 166.771C238.979 160.298 292.717 149.775 320.616 150.052L610.064 152.96C608.386 147.975 606.12 143.077 602.609 138.37L602.557 138.3L602.523 138.266L602.505 138.231L602.471 138.197L602.436 138.162L602.419 138.145L602.332 138.058L602.298 138.024L602.263 137.989L602.246 137.972L602.228 137.954L602.194 137.92L602.177 137.902L602.159 137.885L602.142 137.868L602.125 137.85L602.107 137.833L602.09 137.816L602.073 137.799L602.055 137.781L602.038 137.764H602.021L602.004 137.747L601.986 137.729L601.969 137.712L601.952 137.695L601.934 137.677L601.917 137.66L601.9 137.643L601.883 137.625L601.865 137.608L601.848 137.591L601.831 137.574L601.813 137.556L601.796 137.539L601.779 137.522L601.761 137.504L601.744 137.487L601.727 137.47H601.71H601.692L601.675 137.452H601.658H601.64L601.623 137.435L601.606 137.418L601.589 137.401L601.571 137.383L601.554 137.366L601.537 137.349L601.519 137.331L601.502 137.314L601.485 137.297L601.467 137.279L601.45 137.262L601.433 137.245L601.416 137.227L601.398 137.21H601.381L601.364 137.193H601.346H601.329L601.312 137.176H601.294H601.277L601.26 137.158L601.243 137.141L601.225 137.124L601.208 137.106L601.191 137.089L601.173 137.072L601.122 137.037L601.104 137.02L601.087 137.002L601.07 136.985L601.052 136.968H601.035L601.018 136.951H601H600.983L600.966 136.933H600.949L600.914 136.916L600.862 136.899H600.845H600.828H600.81C600.637 136.829 600.447 136.743 600.257 136.691H600.239H600.222L600.17 136.674L599.997 136.501Z" fill="#2F7DCE"/>
<path fill-rule="evenodd" clip-rule="evenodd" d="M225.107 77.2241C224.26 77.4664 223.43 77.726 222.599 77.9856C180.812 91.139 148.279 114.261 117.111 136.674H268.935C282.322 136.674 295.606 133.697 303.787 125.182L347.165 79.9932C348.341 78.7644 347.857 77.2241 345.816 77.2241H225.107Z" fill="#1C1F25"/>
<path fill-rule="evenodd" clip-rule="evenodd" d="M123.389 133.471H125.118C175.069 113.309 245.377 100.571 323.503 100.017L342.321 80.4082L218.568 80.4255C182.939 92.402 153.639 111.872 123.389 133.471Z" fill="#2A2F37"/>
<path fill-rule="evenodd" clip-rule="evenodd" d="M615.908 174.299L617.43 171.772C618.018 170.803 618.364 169.713 618.07 168.536L614.905 156.386C614.68 155.573 614.179 155.019 613.4 154.673L610.114 152.873L600.169 152.717C598.249 152.683 597.557 154.586 598.872 156.058L614.386 173.676C614.767 174.109 615.355 174.334 615.908 174.299Z" fill="#FF0000"/>
<path fill-rule="evenodd" clip-rule="evenodd" d="M13.2136 185.012L8.68209 189.494L8.61291 189.564L8.57831 189.598L8.54372 189.633L8.52643 189.667L8.49183 189.702L8.47454 189.719L8.45724 189.737L8.42265 189.771L8.40536 189.789L8.38806 189.806L8.35347 189.841L8.33617 189.858L8.31888 189.875L8.28428 189.91L8.26699 189.944L8.2324 189.979L8.1978 190.014L8.16321 190.048L8.12862 190.083L8.11132 190.117L8.07673 190.152V190.169L8.05944 190.187L8.02485 190.221L8.00755 190.239L7.99025 190.256L7.95566 190.29L7.93837 190.308L7.92107 190.325L7.90377 190.36L7.88648 190.394L7.86918 190.429L7.85189 190.464L7.83459 190.498L7.81729 190.533L7.8 190.567L7.7827 190.55V190.567L7.76541 190.585L7.74811 190.619L7.73081 190.637L7.71352 190.654L7.69622 190.689L7.67893 190.706V190.723L7.66163 190.758L7.64433 190.792L7.62704 190.827L7.60974 190.862L7.59245 190.896L7.57515 190.931L7.55785 190.965L7.54056 191V191.017L7.52326 191.035L7.50597 191.069V191.087L7.48867 191.104L7.47137 191.139L7.45408 191.156V191.173L7.43678 191.208L7.41949 191.242L7.40219 191.277L7.3503 191.381L7.33301 191.415L7.31571 191.45V191.467L7.29842 191.485L7.28112 191.519V191.537L7.26382 191.554L7.24653 191.589L7.22923 191.606V191.623L7.21194 191.658L7.19464 191.692L7.17734 191.727L19.7515 203.877C21.8097 205.867 24.3349 207.182 27.5347 207.199L141.48 207.598C145.545 207.615 149.471 206.888 153.207 205.659L214.158 183.835L146.168 195.881C139.889 196.988 140.339 196.538 133.075 196.538H35.9924C31.7722 196.625 25.7013 196.002 22.8821 194.219L13.2136 185.012ZM4.40999 212.738L4.3581 212.807L4.30622 212.876L4.25433 212.945L4.20244 213.015L4.15055 213.084L4.09866 213.153L4.04678 213.222L3.99489 213.292L3.943 213.361L3.89111 213.43L3.83922 213.499L3.78734 213.568L3.73545 213.638L3.68356 213.707L3.63167 213.776L3.57979 213.845L3.5279 213.915L3.47601 213.984L3.42412 214.053L3.37223 214.122L3.32035 214.192L3.26846 214.261L3.21657 214.33L3.16468 214.399L3.11279 214.468L3.06091 214.538L3.00902 214.607L2.95713 214.676L2.90524 214.745L2.85336 214.815L2.80147 214.884L2.74958 214.953L2.69769 215.022L2.6458 215.091L2.59392 215.161L2.54203 215.23L2.49014 215.299L2.43825 215.368L2.38637 215.438L2.33448 215.507L2.28259 215.576L2.2307 215.645L2.17881 215.715L2.12693 215.784L2.07504 215.853L2.02315 215.922L1.97126 215.991L1.91937 216.061L1.86749 216.13L1.8156 216.199L1.76371 216.268L1.71182 216.338L1.65994 216.407L1.60805 216.476L1.55616 216.545L1.50427 216.615L1.45238 216.684L1.4005 216.753L1.34861 216.822L1.29672 216.891L1.24483 216.961L1.19294 217.03L1.14106 217.099L1.08917 217.168L1.07187 217.203L1.05458 217.238L1.03728 217.272C0.795138 217.584 0.587586 217.93 0.449219 218.328L17.8662 227.172L4.40999 212.738Z" fill="#2F7DCE"/>
<path fill-rule="evenodd" clip-rule="evenodd" d="M6.93555 238.283L7.33335 252.994C9.87586 252.994 12.4184 253.011 14.9609 252.994C15.964 252.994 16.9153 252.423 17.0364 251.177L18.0395 240.429C18.1779 238.975 17.3131 238.301 16.1889 238.301H6.93555V238.283Z" fill="#1C1F25"/>
<path fill-rule="evenodd" clip-rule="evenodd" d="M34.5917 172.274H141.602C142.864 172.274 143.833 173.71 142.968 175.026L130.844 193.683C129.927 195.188 127.678 196.556 125.465 196.556H58.2179H32.8275C32.0146 196.556 31.0633 195.552 31.1325 194.704L32.8967 173.883C33.0004 172.862 33.675 172.274 34.5917 172.274Z" fill="#2A2F37"/>
<path fill-rule="evenodd" clip-rule="evenodd" d="M40.3171 172.274H141.602C142.865 172.274 143.833 173.71 142.969 175.026L130.844 193.683C129.927 195.188 127.679 196.556 125.465 196.556H63.9953H58.2357H38.6048C37.7919 196.556 36.8406 195.552 36.9098 194.704L38.674 173.883C38.7605 172.88 39.4177 172.291 40.3171 172.274Z" fill="#1C1F25"/>
<path fill-rule="evenodd" clip-rule="evenodd" d="M28.5563 235.081H132.367C134.494 235.081 137.002 236.275 138.143 237.469L152.274 252.163C153.329 253.253 152.689 255.105 150.908 255.105H25.3912C24.0767 255.105 23.2811 254.067 23.4713 252.925L26.0484 236.916C26.2214 235.981 27.1381 235.081 28.5563 235.081Z" fill="#2A2F37"/>
<path fill-rule="evenodd" clip-rule="evenodd" d="M34.5237 235.081H132.35C134.477 235.081 136.985 236.275 138.126 237.469L152.257 252.163C153.312 253.253 152.672 255.105 150.891 255.105H31.3585H31.2893C30.0267 255.071 29.2484 254.05 29.4387 252.925L32.0158 236.916C32.206 235.981 33.1227 235.081 34.5237 235.081Z" fill="#1C1F25"/>
<path fill-rule="evenodd" clip-rule="evenodd" d="M159.417 238.283H180.726C183.078 238.283 185.119 239.304 186.572 240.914L194.58 249.775C195.739 251.056 195.116 252.994 193.161 252.994H172.943C170.538 252.994 168.013 251.817 166.906 250.64L158.085 241.243C156.926 239.979 157.549 238.283 159.417 238.283Z" fill="#2A2F37"/>
<path fill-rule="evenodd" clip-rule="evenodd" d="M165.383 238.283H180.725C183.077 238.283 185.118 239.304 186.571 240.914L194.579 249.775C195.737 251.056 195.115 252.994 193.16 252.994H178.926C176.522 252.994 173.996 251.817 172.889 250.64L164.069 241.243C162.91 239.979 163.515 238.283 165.383 238.283Z" fill="#1C1F25"/>
<path fill-rule="evenodd" clip-rule="evenodd" d="M21.915 166.58C21.4999 167.013 21.1713 167.515 20.9637 167.982C17.6775 173.278 15.2215 179.024 13.2324 185.012L22.3301 193.925C23.6792 194.912 24.9937 194.202 25.132 192.679L26.9481 173.572C27.0692 172.274 26.36 171.547 25.3396 170.405L21.915 166.58Z" fill="#EBEBEB"/>
<path fill-rule="evenodd" clip-rule="evenodd" d="M69.7363 181.308H83.2272C84.9395 181.308 86.3404 182.71 86.3404 184.423C86.3404 186.137 84.9395 187.539 83.2272 187.539H69.7363C68.024 187.539 66.623 186.137 66.623 184.423C66.623 182.71 68.024 181.308 69.7363 181.308Z" fill="#0F0F0F"/>
<path fill-rule="evenodd" clip-rule="evenodd" d="M66.625 181.308H80.1158C81.8281 181.308 83.2291 182.71 83.2291 184.423C83.2291 186.137 81.8281 187.539 80.1158 187.539H66.625C64.9127 187.539 63.5117 186.137 63.5117 184.423C63.5117 182.71 64.9127 181.308 66.625 181.308Z" fill="#D9D9D9"/>
<path fill-rule="evenodd" clip-rule="evenodd" d="M422.593 157.13H437.173C438.92 157.13 440.356 158.567 440.356 160.315C440.356 162.063 438.92 163.499 437.173 163.499H422.593C420.846 163.499 419.41 162.063 419.41 160.315C419.393 158.567 420.829 157.13 422.593 157.13Z" fill="#1C1F25"/>
<path fill-rule="evenodd" clip-rule="evenodd" d="M512.79 157.13H527.371C529.117 157.13 530.553 158.567 530.553 160.315C530.553 162.063 529.117 163.499 527.371 163.499H512.79C511.043 163.499 509.608 162.063 509.608 160.315C509.59 158.567 511.026 157.13 512.79 157.13Z" fill="#1C1F25"/>
<path fill-rule="evenodd" clip-rule="evenodd" d="M28.2793 242.541H143.038L147.95 247.646H28.2793V242.541Z" fill="#2A2F37"/>
<path fill-rule="evenodd" clip-rule="evenodd" d="M163.326 242.541H188.042L192.66 247.646H167.408L163.326 242.541Z" fill="#2A2F37"/>
<path fill-rule="evenodd" clip-rule="evenodd" d="M7.19433 242.541H17.8313L17.3816 247.646H7.19433C4.54805 247.646 4.47887 242.541 7.19433 242.541Z" fill="#2A2F37"/>
<path fill-rule="evenodd" clip-rule="evenodd" d="M504.903 199.705L485.843 222.343C474.999 232.398 460.643 238.058 443.209 239.875L346.403 246.486C333.293 247.681 347.337 238.992 380.303 234.146C424.045 227.726 458.273 220.491 484.252 204.015C501.807 192.454 512.877 190.914 504.903 199.705Z" fill="#2F7DCE"/>
<path fill-rule="evenodd" clip-rule="evenodd" d="M222.442 165.074L160.073 171.979C158.482 172.153 157.15 173.104 156.493 174.126L144.559 193.181C143.677 194.582 144.87 196.105 146.219 195.863L214.071 183.835C215.247 183.575 216.527 182.744 217.115 181.481L224.155 167.566C224.743 166.458 223.843 164.918 222.442 165.074Z" fill="#EBEBEB"/>
<path fill-rule="evenodd" clip-rule="evenodd" d="M315.702 137.02H530.743L538.63 134.787C539.944 134.787 540.255 133.385 539.771 132.676C531.175 120.007 492.363 89.0792 475.897 84.839C455.263 79.5257 433.142 77.5181 412.248 76.9297C398.065 76.5143 378.694 77.3451 364.615 83.7833C351.591 89.7369 330.023 114.849 314.63 134.822C313.869 135.791 314.336 137.02 315.702 137.02Z" fill="#1C1F25"/>
<path fill-rule="evenodd" clip-rule="evenodd" d="M416.902 108.654L416.85 108.411L416.729 107.927L416.642 107.58L416.469 106.854L416.435 106.75L416.227 105.919L416.192 105.798L416.019 105.088L415.933 104.742L415.812 104.258L415.674 103.686L415.604 103.427L415.397 102.613V102.596L414.964 100.935L414.843 100.502L414.74 100.104L414.567 99.4462L414.515 99.2904L414.29 98.4597L414.273 98.3905L414.065 97.6289L413.979 97.3347L413.84 96.7982L413.702 96.279L413.615 95.9675L413.408 95.206L413.39 95.1367L413.166 94.306L413.131 94.1502L412.941 93.4753L412.837 93.0945L412.716 92.6445L412.543 92.0388L412.474 91.8138L412.232 90.9831V90.9657L411.99 90.135L411.92 89.8927L411.747 89.3043L411.609 88.837L411.505 88.4735L411.298 87.764L411.263 87.6255L411.021 86.7948L410.986 86.6909L410.761 85.9467L410.658 85.6179L410.502 85.116L410.329 84.5448L410.243 84.2679L410 83.4718L409.983 83.4199L409.724 82.5718L409.672 82.3815L409.482 81.7238L409.361 81.3084L409.239 80.8931L409.032 80.2354L408.98 80.045C395.074 79.8546 378.245 81.0142 365.878 86.6909C358.165 90.2215 347.579 100.623 337.842 111.544C358.597 109.571 380.321 108.498 402.702 108.498C407.51 108.498 412.214 108.55 416.902 108.654ZM499.213 115.369C495.356 107.857 491.17 100.537 486.57 93.0945C482.073 90.5504 478.112 88.7158 475.085 87.937C458.706 83.7141 441.548 81.62 424.564 80.6508C427.435 90.2389 429.995 99.6193 432.157 109.121C455.558 110.107 478.043 112.236 499.213 115.369ZM522.545 119.332C517.149 118.294 511.666 117.324 506.062 116.424C505.232 114.728 504.367 113.032 503.502 111.336C501.479 107.425 499.351 103.548 497.137 99.6885C505.768 105.521 514.97 112.669 522.545 119.332Z" fill="#2A2F37"/>
<path fill-rule="evenodd" clip-rule="evenodd" d="M501.289 263.292H436.152V281.533L492.174 274.403C497.155 273.762 501.289 270.301 501.289 265.282V263.292Z" fill="#2AAEF8"/>
<path fill-rule="evenodd" clip-rule="evenodd" d="M310.809 263.292H411.575V281.533L317.623 274.281C312.625 273.901 310.809 270.301 310.809 265.282V263.292Z" fill="#2AAEF8"/>
<path fill-rule="evenodd" clip-rule="evenodd" d="M433.764 34.3198H405.831C399.207 34.3198 393.793 39.7369 393.793 46.3655V438.906H445.802V46.3655C445.802 39.7369 440.388 34.3198 433.764 34.3198Z" fill="#6A7081"/>
<path fill-rule="evenodd" clip-rule="evenodd" d="M433.764 34.3198H405.831C399.207 34.3198 393.793 39.7369 393.793 46.3655V51.7999H413.216L445.802 46.3655C445.802 39.7369 440.388 34.3198 433.764 34.3198Z" fill="#33383D"/>
<path fill-rule="evenodd" clip-rule="evenodd" d="M430.945 41.1909L413.217 51.8001V438.889H454.917V46.3657L430.945 41.1909Z" fill="#2AAEF8"/>
<path fill-rule="evenodd" clip-rule="evenodd" d="M442.879 34.3198H425.255C418.63 34.3198 413.217 39.7369 413.217 46.3655V51.7999H454.917V46.3655C454.917 39.7369 449.504 34.3198 442.879 34.3198Z" fill="#474C50"/>
<path fill-rule="evenodd" clip-rule="evenodd" d="M94.4192 0.709487C111.542 -0.311627 129.668 -0.225092 148.867 1.00371C154.972 1.40177 161.441 2.87286 167.737 5.27854L179.55 9.81298C201.896 18.3799 220.68 33.0909 229.431 48.8749L275.629 132.399C277.306 135.445 274.332 137.521 269.938 136.362C247.782 130.495 219.659 126.86 190.827 126.86C161.994 126.86 137.884 130.477 122.214 136.362C119.1 137.521 113.825 135.445 112.13 132.381L65.9673 48.9095C57.2156 33.1082 59.7235 18.3799 72.609 9.81298L79.8387 5.01893C83.5573 2.54403 88.5731 1.05563 94.4192 0.709487Z" fill="#226FBE"/>
<path fill-rule="evenodd" clip-rule="evenodd" d="M113.186 23.5027C126.348 22.7066 140.306 22.7758 155.059 23.7277C159.746 24.0219 164.727 25.1642 169.57 27.0161L178.651 30.4948C195.843 37.0887 210.285 48.3902 217.013 60.5397L240.968 103.842C242.248 106.196 239.965 107.788 236.592 106.888C219.556 102.371 197.918 99.5844 175.745 99.5844C153.572 99.5844 135.03 102.371 122.975 106.888C120.588 107.788 116.524 106.178 115.226 103.825L91.3062 60.5917C84.578 48.4421 86.4979 37.106 96.4258 30.5121L101.978 26.8257C104.832 24.9219 108.689 23.7796 113.186 23.5027Z" fill="#2A2F37"/>
<path fill-rule="evenodd" clip-rule="evenodd" d="M121.677 90.8443C119.757 90.8443 118.858 92.0212 119.653 93.4577C120.449 94.9115 122.663 96.071 124.583 96.071C126.503 96.071 127.402 94.8941 126.606 93.4577C125.794 92.0212 123.597 90.8443 121.677 90.8443ZM221.838 90.8443C219.918 90.8443 219.019 92.0212 219.814 93.4577C220.61 94.9115 222.824 96.071 224.744 96.071C226.664 96.071 227.563 94.8941 226.767 93.4577C225.954 92.0212 223.758 90.8443 221.838 90.8443ZM201.394 53.9111C199.474 53.9111 198.575 55.088 199.371 56.5245C200.166 57.9783 202.38 59.1379 204.3 59.1379C206.22 59.1379 207.119 57.961 206.324 56.5245C205.528 55.088 203.314 53.9111 201.394 53.9111ZM156.148 29.1621C154.228 29.1621 153.329 30.339 154.124 31.7755C154.92 33.2293 157.134 34.3888 159.054 34.3888C160.974 34.3888 161.873 33.212 161.077 31.7755C160.264 30.339 158.068 29.1621 156.148 29.1621ZM114.759 29.1621C112.839 29.1621 111.94 30.339 112.735 31.7755C113.531 33.2293 115.745 34.3888 117.664 34.3888C119.584 34.3888 120.484 33.212 119.688 31.7755C118.875 30.339 116.679 29.1621 114.759 29.1621ZM101.251 53.9111C99.3308 53.9111 98.4314 55.088 99.227 56.5245C100.023 57.9783 102.236 59.1379 104.156 59.1379C106.076 59.1379 106.976 57.961 106.18 56.5245C105.367 55.088 103.17 53.9111 101.251 53.9111Z" fill="#1C1F25"/>
<path fill-rule="evenodd" clip-rule="evenodd" d="M270.093 139.564H118.062C91.0628 145.12 57.6989 155.573 39.2614 164.348C36.4422 165.888 37.7913 169.609 41.337 169.609L150.388 169.765C161.094 169.159 171.385 167.532 181.175 164.659C209.696 156.923 241.589 147.3 270.093 139.564Z" fill="#1F64AB"/>
<path fill-rule="evenodd" clip-rule="evenodd" d="M202.967 147.438L148.918 153.686C127.886 156.109 99.0533 155.746 91.8755 159.951C90.3881 163.88 90.0768 167.186 92.429 168.415C96.4935 170.526 136.568 169.626 154.573 169.505C157.22 169.488 163.031 168.986 169.828 167.411C183.873 164.174 202.414 159.225 204.991 155.884C206.34 154.102 207.032 146.971 202.967 147.438Z" fill="#2A2F37"/>
<path fill-rule="evenodd" clip-rule="evenodd" d="M118.062 139.564C91.0628 145.12 57.6989 155.573 39.2614 164.348C36.4422 165.888 37.7913 169.609 41.337 169.609L118.062 169.713V139.564Z" fill="#154271"/>
<path fill-rule="evenodd" clip-rule="evenodd" d="M71.9693 169.661L102.929 169.695C103.742 168.882 104.192 167.982 104.192 167.047C104.192 163.205 96.7025 160.09 87.4838 160.09C78.2477 160.09 70.7759 163.205 70.7759 167.047C70.7586 167.965 71.191 168.847 71.9693 169.661Z" fill="#154271"/>
<path fill-rule="evenodd" clip-rule="evenodd" d="M59.1353 162.253L102.773 146.002C109.034 144.548 115.001 144.323 120.674 145.396L123.666 151.869L75.8431 169.678L53.0471 169.626C53.0298 167.169 54.0157 164.417 59.1353 162.253Z" fill="#2A2F37"/>
<path fill-rule="evenodd" clip-rule="evenodd" d="M118.668 145.067C119.343 145.154 120.017 145.258 120.675 145.396L123.667 151.869L75.8954 169.643L63.7363 169.626C63.7363 167.168 64.7049 164.417 69.8418 162.253L113.462 146.002C115.226 145.587 116.956 145.275 118.668 145.067Z" fill="#1C1F25"/>
<path fill-rule="evenodd" clip-rule="evenodd" d="M91.9441 437.608H537.557C538.491 437.608 539.252 438.369 539.252 439.304C539.252 440.238 538.491 441 537.557 441H91.9441C91.0101 441 90.2491 440.238 90.2491 439.304C90.2663 438.369 91.0101 437.608 91.9441 437.608ZM62.3161 437.608H79.0759C80.0099 437.608 80.7709 438.369 80.7709 439.304C80.7709 440.238 80.0099 441 79.0759 441H62.3161C61.3821 441 60.6211 440.238 60.6211 439.304C60.6384 438.369 61.3994 437.608 62.3161 437.608ZM551.947 437.608H568.707C569.641 437.608 570.402 438.369 570.402 439.304C570.402 440.238 569.641 441 568.707 441H551.947C551.013 441 550.252 440.238 550.252 439.304C550.269 438.369 551.03 437.608 551.947 437.608Z" fill="#353B45"/>
<path fill-rule="evenodd" clip-rule="evenodd" d="M200.323 143.683L146.273 149.93C125.241 152.353 96.4087 151.99 89.2308 156.196C87.7434 160.124 87.6742 163.049 89.7843 164.659C93.1743 167.237 132.955 166.337 151.929 165.749C160.317 165.489 198.991 157.909 202.346 152.128C203.453 150.19 204.387 143.215 200.323 143.683Z" fill="#1C1F25"/>
<path fill-rule="evenodd" clip-rule="evenodd" d="M194.717 143.112H146.254C114.274 143.112 72.9016 157.979 95.7842 157.979H144.247C165.625 157.979 221.457 143.112 194.717 143.112Z" fill="#2A2F37"/>
<path fill-rule="evenodd" clip-rule="evenodd" d="M110.33 147.785C107.77 148.408 105.366 149.048 103.152 149.706H190.41C192.607 149.048 194.561 148.408 196.222 147.785H110.33ZM97.998 151.385C96.1473 152.042 94.5388 152.683 93.207 153.306H176.522C179.254 152.683 181.918 152.042 184.426 151.385H97.998Z" fill="#666666"/>
<path fill-rule="evenodd" clip-rule="evenodd" d="M98.31 160.592C102.34 160.592 105.592 162.374 105.592 164.59C105.592 166.026 104.191 167.29 102.098 167.999V169.713H91.0457C91.0457 167.22 90.0253 160.592 98.31 160.592Z" fill="#A5AAAF"/>
<path fill-rule="evenodd" clip-rule="evenodd" d="M102.238 161.215C104.261 161.924 105.593 163.171 105.593 164.572C105.593 166.009 104.192 167.272 102.099 167.982V169.695H95.9591C95.8899 167.03 95.5786 161.699 102.238 161.215Z" fill="#858A8D"/>
<path fill-rule="evenodd" clip-rule="evenodd" d="M109.345 160.592C113.375 160.592 116.627 162.374 116.627 164.59C116.627 166.026 115.226 167.29 113.133 167.999V169.713H102.081C102.081 167.22 101.06 160.592 109.345 160.592Z" fill="#A5AAAF"/>
<path fill-rule="evenodd" clip-rule="evenodd" d="M113.289 161.215C115.312 161.924 116.644 163.171 116.644 164.572C116.644 166.009 115.243 167.272 113.15 167.982V169.695H107.01C106.924 167.03 106.612 161.699 113.289 161.215Z" fill="#858A8D"/>
<path fill-rule="evenodd" clip-rule="evenodd" d="M120.31 160.592C124.34 160.592 127.592 162.374 127.592 164.59C127.592 166.026 126.191 167.29 124.098 167.999V169.713H113.046C113.046 167.22 112.025 160.592 120.31 160.592Z" fill="#A5AAAF"/>
<path fill-rule="evenodd" clip-rule="evenodd" d="M124.236 161.215C126.259 161.924 127.591 163.171 127.591 164.572C127.591 166.009 126.19 167.272 124.097 167.982V169.695H117.957C117.888 167.03 117.577 161.699 124.236 161.215Z" fill="#858A8D"/>
<path fill-rule="evenodd" clip-rule="evenodd" d="M131.277 160.592C135.306 160.592 138.558 162.374 138.558 164.59C138.558 166.026 137.157 167.29 135.064 167.999V169.713H124.012C124.012 167.22 122.974 160.592 131.277 160.592Z" fill="#A5AAAF"/>
<path fill-rule="evenodd" clip-rule="evenodd" d="M135.202 161.215C137.225 161.924 138.557 163.171 138.557 164.572C138.557 166.009 137.156 167.272 135.063 167.982V169.695H128.923C128.837 167.03 128.543 161.699 135.202 161.215Z" fill="#858A8D"/>
<path fill-rule="evenodd" clip-rule="evenodd" d="M230.346 150.778C230.225 150.519 230.191 150.207 230.312 149.913L247.781 105.399C248.005 104.846 248.628 104.569 249.182 104.794C249.735 105.019 250.012 105.642 249.804 106.196L232.543 150.155L230.346 150.778Z" fill="#A5AAAF"/>
<path fill-rule="evenodd" clip-rule="evenodd" d="M231.246 150.519C231.263 150.484 231.263 150.45 231.281 150.432L248.75 105.919C248.905 105.503 249.303 105.244 249.718 105.227C249.891 105.503 249.926 105.85 249.805 106.178L232.543 150.138L231.246 150.519Z" fill="#808080"/>
<path fill-rule="evenodd" clip-rule="evenodd" d="M228.859 151.194C228.841 150.9 228.893 150.588 228.997 150.277L237.887 127.622C238.32 126.514 239.582 125.96 240.689 126.393C241.796 126.826 242.35 128.089 241.917 129.197L233.84 149.757L228.859 151.194Z" fill="#2A2F37"/>
<path fill-rule="evenodd" clip-rule="evenodd" d="M231.229 150.519L239.911 128.418C240.205 127.674 240.862 127.172 241.606 127.068C242.073 127.656 242.229 128.47 241.935 129.214L233.857 149.775L231.229 150.519Z" fill="#1C1F25"/>
<path fill-rule="evenodd" clip-rule="evenodd" d="M85.9948 146.936C85.77 147.49 85.1473 147.767 84.5939 147.542C84.0404 147.317 83.7636 146.694 83.9885 146.14L101.457 101.627C101.682 101.073 102.305 100.796 102.858 101.021C103.412 101.246 103.689 101.869 103.481 102.423L85.9948 146.936Z" fill="#A5AAAF"/>
<path fill-rule="evenodd" clip-rule="evenodd" d="M85.9959 146.936C85.8402 147.352 85.4424 147.611 85.0273 147.629C84.8543 147.352 84.8197 147.005 84.9408 146.677L102.41 102.163C102.565 101.748 102.963 101.488 103.378 101.471C103.551 101.748 103.586 102.094 103.465 102.423L85.9959 146.936Z" fill="#808080"/>
<path fill-rule="evenodd" clip-rule="evenodd" d="M86.6869 148.113C86.2545 149.221 84.9919 149.775 83.8849 149.342C82.778 148.909 82.2245 147.646 82.6569 146.538L91.547 123.883C91.9794 122.776 93.242 122.222 94.349 122.655C95.4559 123.087 96.0094 124.351 95.577 125.458L86.6869 148.113Z" fill="#2A2F37"/>
<path fill-rule="evenodd" clip-rule="evenodd" d="M86.6867 148.113C86.3927 148.857 85.7355 149.359 84.9917 149.463C84.5247 148.874 84.3691 148.061 84.6631 147.317L93.5532 124.662C93.8473 123.918 94.5045 123.416 95.2482 123.312C95.7152 123.9 95.8709 124.714 95.5769 125.458L86.6867 148.113Z" fill="#1C1F25"/>
</svg>
