<svg width="102" height="100" viewBox="0 0 102 100" fill="none" xmlns="http://www.w3.org/2000/svg">
<g clip-path="url(#clip0)">
<path d="M77.5421 47.726C76.1911 47.726 74.8366 47.719 73.4855 47.726C70.8638 47.7364 68.2421 47.7503 65.6203 47.7642C65.5296 47.7642 65.4353 47.7503 65.341 47.7399C65.2992 47.6217 65.2957 47.4965 65.2817 47.3748C65.1525 46.3804 64.7196 45.5424 63.9446 44.8991C63.1766 44.2628 62.2899 43.9708 61.2845 44.0368C60.1883 44.1098 59.2877 44.5584 58.5929 45.4068C57.982 46.1543 57.7307 47.0236 57.7656 47.9798C57.392 47.8477 57.0115 47.7399 56.6485 47.5834C55.664 47.1627 55.1264 46.3977 55.0845 45.3407C54.9553 42.1071 57.605 39.2872 60.8481 39.1794C61.0262 39.1724 61.1379 39.155 61.2252 38.9569C63.0579 34.8609 66.1929 32.4304 70.6404 31.6863C70.6613 31.6829 70.6788 31.6759 70.6997 31.6689C70.8498 31.6516 70.9965 31.6377 71.1466 31.6203C71.192 31.6133 71.2338 31.6098 71.2792 31.6029C71.4224 31.5925 71.5655 31.582 71.7086 31.5681C71.747 31.5681 71.7889 31.5646 71.8273 31.5646C71.96 31.5646 72.0926 31.5612 72.2288 31.5612C72.2707 31.5612 72.3126 31.5612 72.3545 31.5612C72.4801 31.5612 72.6058 31.5646 72.735 31.5646C72.7769 31.5646 72.8188 31.5646 72.8607 31.5646C73.1679 31.589 73.4786 31.6098 73.7858 31.6342C73.8277 31.6411 73.873 31.6481 73.9149 31.655C74.0651 31.6794 74.2152 31.7072 74.3688 31.7315C74.4142 31.7385 74.456 31.7454 74.5014 31.7524C74.5503 31.7594 74.5992 31.7663 74.6446 31.7733C75.9083 32.0619 77.1267 32.4756 78.2543 33.1258C80.7154 34.5445 82.4749 36.5681 83.5222 39.2002C83.6025 39.4019 83.7177 39.5097 83.9097 39.6036C86.1928 40.7128 87.4286 42.5208 87.4984 45.066C87.5263 46.0918 87.0271 46.8498 86.1439 47.3574C85.8018 47.5556 85.4387 47.7121 85.0652 47.8512C85.0582 47.6043 85.0826 47.3505 85.0408 47.1071C84.5974 44.5375 81.843 43.1467 79.5424 44.3637C78.2193 45.0626 77.5665 46.2204 77.5421 47.726ZM67.1948 39.1585C67.1948 39.1446 67.1948 39.1307 67.1948 39.1168C68.3608 39.1168 69.5268 39.1203 70.6927 39.1168C71.0768 39.1168 71.2688 38.9186 71.2688 38.5396C71.2583 36.9541 71.2513 35.3651 71.2408 33.7795C71.2373 33.331 71.0593 33.1536 70.609 33.1815C69.7048 33.2406 68.846 33.4735 68.0256 33.8525C65.9206 34.8296 64.4089 36.4395 63.222 38.3797C62.9776 38.776 63.2185 39.1516 63.6968 39.155C64.8593 39.162 66.0253 39.1585 67.1948 39.1585ZM73.7299 36.1543C73.7369 36.1543 73.7404 36.1543 73.7474 36.1543C73.7474 36.9436 73.7439 37.7295 73.7474 38.5187C73.7509 38.9325 73.9289 39.1064 74.3408 39.1064C75.7372 39.1029 77.1301 39.0994 78.5266 39.089C78.9594 39.0855 79.1514 38.8734 79.1095 38.4388C79.0397 37.7225 78.8722 37.0271 78.5475 36.3804C77.7131 34.7288 76.2993 33.8212 74.5712 33.3171C73.9568 33.1397 73.7299 33.3136 73.7299 33.9429C73.7299 34.6801 73.7299 35.4172 73.7299 36.1543Z" fill="#6A7081"/>
<path d="M58.195 47.9555C58.1635 47.1071 58.387 46.3352 58.9281 45.6711C59.5425 44.92 60.3454 44.5167 61.3159 44.4541C62.2061 44.395 62.9951 44.6523 63.6758 45.219C64.3635 45.7928 64.7475 46.5368 64.8627 47.4165C64.8767 47.5243 64.8802 47.6356 64.9151 47.7399C64.8174 47.9346 64.8592 48.1537 64.8208 48.3588C64.5101 50.0591 63.016 51.203 61.2356 51.0918C59.6158 50.9909 58.2788 49.6175 58.195 47.9555ZM60.0836 47.7677C60.0836 48.5848 60.7224 49.2211 61.5463 49.2176C62.3423 49.2142 62.9881 48.564 62.9846 47.7677C62.9811 46.975 62.3318 46.3282 61.5323 46.3317C60.7259 46.3317 60.0836 46.9645 60.0836 47.7677Z" fill="#6A7081"/>
<path d="M77.8423 47.7225C77.8632 46.3386 78.4637 45.2712 79.689 44.6245C81.8081 43.5048 84.346 44.7844 84.751 47.1488C84.7894 47.3713 84.765 47.6043 84.7719 47.8338C84.6777 49.7114 83.1556 51.1474 81.267 51.137C79.3958 51.1265 77.9051 49.6418 77.8423 47.7225ZM82.8135 47.6738C82.81 46.8498 82.1362 46.1787 81.3089 46.1787C80.4745 46.1787 79.8007 46.8637 79.8077 47.7051C79.8147 48.5222 80.5094 49.2003 81.3263 49.1898C82.1502 49.1759 82.817 48.4979 82.8135 47.6738Z" fill="#6A7081"/>
<path d="M67.4077 23.3762C67.6451 23.3762 67.8825 23.397 68.1164 23.3727C69.1323 23.2684 69.8724 23.2962 69.9387 24.7114C69.998 25.9422 71.0837 26.6307 72.3545 26.6933C73.3773 26.742 74.1314 26.3664 74.4805 25.379C74.875 24.2698 74.4875 23.0459 73.4925 22.3609C72.9793 22.0097 72.4033 21.735 71.8273 21.4881C70.6299 20.977 69.4639 20.4172 68.3468 19.7531C66.1091 18.4179 65.355 16.3943 65.6936 13.9325C66.0392 11.4325 67.6102 9.85392 69.9841 9.33237C71.4084 9.01943 71.9146 8.47006 71.6598 7.11401C71.4643 6.07437 72.0054 5.94572 72.9095 5.91443C73.894 5.87965 74.0685 6.2969 73.9429 7.08619C73.7369 8.3727 74.0965 9.07159 75.5243 9.48188C77.9086 10.1634 79.3644 12.3748 79.5145 14.7913C79.5599 15.5354 79.3539 15.7823 78.6138 15.7093C78.0273 15.6502 77.4304 15.6641 76.8439 15.7058C75.5906 15.7927 74.477 15.8901 74.4002 14.0577C74.3618 13.1397 73.482 12.6356 72.5011 12.6251C71.6283 12.6182 70.9685 12.9972 70.6927 13.856C70.3541 14.9026 70.4554 15.8901 71.3107 16.6655C71.8378 17.1418 72.4871 17.4443 73.1434 17.719C74.4875 18.2858 75.7756 18.9499 76.994 19.76C79.12 21.1717 79.7624 23.1884 79.3923 25.5911C79.0118 28.0528 77.4374 29.5549 75.1019 30.0313C73.7299 30.3129 73.5274 30.9527 73.6357 32.0862C73.6706 32.4443 73.8556 33.0354 73.4332 33.1467C72.8467 33.2997 72.159 33.2962 71.5725 33.1432C71.1361 33.0285 71.3211 32.4374 71.37 32.0931C71.555 30.831 71.1431 30.2816 69.7921 29.9861C66.8282 29.3358 65.3131 27.4235 64.9466 24.4854C64.8348 23.5883 65.0827 23.2545 65.9939 23.3727C66.4582 23.4249 66.9364 23.3762 67.4077 23.3762Z" fill="#6A7081"/>
<path d="M71.9146 59.9305C55.3254 59.9305 41.8292 46.4882 41.8292 29.9652C41.8327 13.4423 55.3289 0 71.9146 0C88.5038 0 102 13.4423 102 29.9652C102 46.4882 88.5038 59.9305 71.9146 59.9305ZM71.9146 4.17246C57.6364 4.17246 46.0184 15.7441 46.0184 29.9652C46.0184 44.1864 57.6364 55.758 71.9146 55.758C86.1928 55.758 97.8108 44.1864 97.8108 29.9652C97.8108 15.7441 86.1963 4.17246 71.9146 4.17246Z" fill="#6A7081"/>
<path d="M23.5293 88.0285C20.0593 83.032 16.5962 78.0459 13.0878 72.9937C13.5032 72.5417 13.8314 72.1558 14.1909 71.7976C15.9364 70.0522 17.7308 68.3519 19.4309 66.5612C23.0371 62.7573 27.5964 62.0862 32.4279 62.8442C35.3883 63.3102 38.387 64.0125 41.1414 65.1599C44.9257 66.7351 48.8286 67.2288 52.8223 67.5C55.3114 67.6669 57.8005 67.8199 60.2826 68.0633C61.7313 68.2058 62.7996 68.8908 63.016 70.5007C63.2325 72.1314 62.6146 73.3588 61.2007 74.1168C57.6713 76.0049 53.8801 76.5682 49.9108 76.3109C45.7915 76.0431 41.6686 75.8588 37.5457 75.6537C37.0954 75.6328 36.6415 75.7093 35.6571 75.7823C36.5228 76.1092 36.8964 76.3282 37.2944 76.3908C44.7162 77.5835 52.1451 78.4771 59.6123 76.7316C62.7088 76.0083 64.6428 74.1099 65.0408 70.9492C65.2573 69.2351 66.0846 68.3136 67.6102 67.6252C70.4135 66.363 73.126 64.9061 75.8943 63.5709C76.9347 63.0702 77.9994 62.5348 79.1165 62.2983C80.115 62.0897 81.2007 62.274 82.2445 62.2844C82.0594 63.4388 82.2724 64.9479 81.6126 65.685C79.8147 67.6982 77.6678 69.4054 75.629 71.2031C69.7537 76.3769 62.6704 79.0612 55.3708 81.6168C48.9299 83.87 42.4575 84.0821 35.8386 84.1134C29.1149 84.1342 29.3872 83.1989 23.5293 88.0285Z" fill="#6A7081"/>
<path d="M9.93887 71.8811C6.60148 74.0264 3.34787 76.1196 0 78.2719C4.93627 85.5563 9.79574 92.719 14.7355 100.003C17.9717 97.3783 21.0228 94.9026 24.0914 92.4131C19.3401 85.5181 14.6727 78.7483 9.93887 71.8811ZM17.0361 94.2072C16.9942 94.2072 16.9523 94.2038 16.9069 94.2003C16.5753 94.2246 16.296 94.1551 16.0656 94.0229C15.0776 93.637 14.3794 92.6808 14.3794 91.5612C14.3794 90.1008 15.5699 88.9152 17.0361 88.9152C18.5023 88.9152 19.6927 90.1008 19.6927 91.5612C19.6927 93.0216 18.5023 94.2072 17.0361 94.2072Z" fill="#6A7081"/>
</g>
<defs>
<clipPath id="clip0">
<rect width="102" height="100" fill="white"/>
</clipPath>
</defs>
</svg>
