<svg width="108" height="103" viewBox="0 0 108 103" fill="none" xmlns="http://www.w3.org/2000/svg">
<path d="M74.813 91.6092C70.31 91.6071 65.8048 91.5884 61.3018 91.605C52.5688 91.6362 43.8379 91.6903 35.1049 91.7278C34.7964 91.7299 34.4879 91.6758 34.1793 91.6487C34.0376 91.2534 34.0313 90.8415 33.9771 90.4316C33.5414 87.1174 32.0987 84.3149 29.5199 82.1657C26.9661 80.0374 24.0058 79.0679 20.6639 79.2863C17.0115 79.5256 14.0095 81.0319 11.7016 83.8614C9.66485 86.358 8.8247 89.2561 8.94562 92.4518C7.70311 92.0149 6.43351 91.6446 5.22644 91.1286C1.94506 89.7242 0.156353 87.1694 0.0166755 83.6408C-0.412781 72.8492 8.40984 63.439 19.2171 63.0791C19.805 63.0604 20.1845 62.9959 20.4784 62.3343C26.5867 48.6653 37.0271 40.5471 51.8371 38.0672C51.9059 38.0568 51.9705 38.0297 52.0372 38.011C52.5334 37.9569 53.0316 37.9028 53.5278 37.8466C53.6758 37.8279 53.8217 37.8113 53.9698 37.7925C54.4492 37.7551 54.9267 37.7176 55.4061 37.6802C55.5375 37.6739 55.6709 37.6698 55.8022 37.6656C56.2463 37.6615 56.6903 37.6552 57.1344 37.6511C57.272 37.6531 57.4096 37.6531 57.5493 37.6552C57.9704 37.6594 58.3915 37.6635 58.8147 37.6677C58.9544 37.6698 59.0941 37.6698 59.2358 37.6719C60.2636 37.7488 61.2914 37.8258 62.3212 37.9028C62.463 37.9236 62.6068 37.9465 62.7486 37.9673C63.251 38.0526 63.7534 38.14 64.2559 38.2253C64.4018 38.2461 64.5498 38.269 64.6957 38.2898C64.8563 38.3147 65.0168 38.3376 65.1773 38.3626C69.3864 39.3321 73.4433 40.7011 77.2021 42.8732C85.4035 47.6105 91.2678 54.3618 94.7556 63.1519C95.0225 63.8239 95.4081 64.1859 96.0419 64.4939C103.653 68.1972 107.764 74.2327 107.996 82.7316C108.09 86.152 106.424 88.684 103.482 90.3817C102.34 91.0412 101.129 91.5634 99.8903 92.0232C99.8695 91.1931 99.9529 90.3463 99.8153 89.5391C98.3435 80.9674 89.1643 76.3237 81.4946 80.3827C77.0687 82.7192 74.886 86.5868 74.813 91.6092ZM40.3356 63.0188C40.3356 62.973 40.3356 62.9272 40.3356 62.8815C44.2215 62.8815 48.1075 62.8877 51.9913 62.8773C53.2735 62.8731 53.9114 62.2157 53.9051 60.9549C53.8759 55.6579 53.8426 50.3609 53.8092 45.0639C53.7988 43.5639 53.1984 42.9751 51.7057 43.0708C48.6954 43.2643 45.8288 44.0486 43.1041 45.3136C36.0889 48.5717 31.0605 53.9477 27.0995 60.4285C26.2907 61.7517 27.0849 63.0084 28.6798 63.0146C32.5636 63.0292 36.4496 63.0188 40.3356 63.0188ZM62.1065 52.9824C62.1253 52.9824 62.1419 52.9824 62.1607 52.9824C62.1607 55.6121 62.1482 58.244 62.167 60.8738C62.1774 62.2511 62.7715 62.8378 64.1391 62.8357C68.786 62.8274 73.435 62.8128 78.0819 62.7816C79.5287 62.7733 80.1687 62.0638 80.029 60.6075C79.7997 58.2149 79.2431 55.8992 78.1548 53.7397C75.3759 48.2284 70.6602 45.195 64.9105 43.5181C62.8612 42.921 62.1107 43.5035 62.1086 45.6049C62.1065 48.0682 62.1065 50.5253 62.1065 52.9824Z" fill="#6A7081"/>
<path d="M10.357 92.3727C10.2507 89.5349 10.997 86.9613 12.8045 84.7456C14.8538 82.2323 17.5223 80.8966 20.764 80.6823C23.7327 80.4867 26.3616 81.3481 28.6277 83.2393C30.9188 85.1492 32.1988 87.6375 32.5866 90.5793C32.6345 90.9434 32.6408 91.3117 32.7659 91.6612C32.4386 92.3145 32.5803 93.0406 32.4553 93.7271C31.4191 99.3986 26.4387 103.221 20.5097 102.85C15.0914 102.511 10.6405 97.9194 10.357 92.3727ZM16.6467 91.7444C16.6425 94.4699 18.7814 96.5962 21.5166 96.5878C24.1642 96.5795 26.3178 94.4033 26.3094 91.7465C26.3011 89.0959 24.1309 86.9447 21.4728 86.9488C18.7856 86.9509 16.6508 89.073 16.6467 91.7444Z" fill="#6A7081"/>
<path d="M75.8116 91.5947C75.8783 86.9738 77.8859 83.4141 81.9616 81.2566C89.0205 77.5221 97.47 81.7954 98.825 89.6847C98.9522 90.4296 98.8772 91.2098 98.8938 91.9712C98.5811 98.2419 93.5069 103.035 87.2193 102.998C80.9859 102.963 76.0242 98.0006 75.8116 91.5947ZM92.3665 91.4365C92.3582 88.6903 90.1067 86.4454 87.359 86.4412C84.5779 86.4371 82.3306 88.7235 82.3535 91.5322C82.3764 94.2619 84.6863 96.5275 87.4069 96.4859C90.1609 96.4464 92.3769 94.1911 92.3665 91.4365Z" fill="#6A7081"/>
<path d="M58.306 35.8597C48.3993 35.8597 40.3397 27.8165 40.3397 17.9299C40.3397 8.04327 48.3993 0 58.306 0C68.2127 0 76.2723 8.04327 76.2723 17.9299C76.2723 27.8165 68.2127 35.8597 58.306 35.8597ZM58.306 2.49662C49.7794 2.49662 42.8414 9.42057 42.8414 17.9299C42.8414 26.4392 49.7794 33.3631 58.306 33.3631C66.8326 33.3631 73.7706 26.4392 73.7706 17.9299C73.7706 9.42057 66.8326 2.49662 58.306 2.49662Z" fill="#6A7081"/>
<path d="M56.0733 22.8607C56.0503 22.8607 56.0253 22.8607 56.0024 22.8586C55.5396 22.8357 54.4555 22.7816 49.3312 16.5234C48.9309 16.0345 49.0039 15.3126 49.4938 14.9131C49.9837 14.5137 50.7071 14.5865 51.1074 15.0754C52.8544 17.2079 55.0559 19.6359 56.017 20.4015C58.083 19.0346 64.4122 15.3979 68.3586 13.1489C68.9069 12.8347 69.6095 13.0261 69.9222 13.5754C70.237 14.1246 70.0452 14.8237 69.4948 15.1357C65.0377 17.6761 57.7244 21.9078 56.9801 22.5049C56.7341 22.7359 56.4173 22.8607 56.0733 22.8607ZM57.0051 22.48C57.001 22.4862 56.9947 22.4904 56.9885 22.4966C56.9947 22.4904 56.9989 22.4862 57.0051 22.48ZM55.5104 20.7531C55.4666 20.7843 55.4249 20.8197 55.3832 20.8613C55.4124 20.8322 55.4562 20.7968 55.5104 20.7531Z" fill="#6A7081"/>
</svg>
