<svg width="48" height="49" viewBox="0 0 48 49" fill="none" xmlns="http://www.w3.org/2000/svg">
<path d="M36.6453 39.8532C42.7551 30.7561 40.8134 17.1819 35.8427 8.56494L42.7551 12.8215C46.4184 19.3101 47.9459 25.9675 47.0398 33.8447C46.5738 37.9585 44.3732 45.0311 40.6193 46.238C37.9786 47.0815 35.2602 46.5754 32.6972 45.2647L32.1147 42.4486C33.8493 43.4349 35.5579 41.4753 36.6453 39.8532Z" fill="url(#paint0_linear)"/>
<path d="M28.063 44.7196C23.5712 50.4816 17.2284 48.7815 11.5069 45.641C11.1574 45.4464 12.646 43.5776 12.8531 43.8761C14.6913 46.5105 16.4906 45.9395 19.1571 44.0578C21.1636 42.6433 22.6522 40.6837 23.8042 38.4776L23.8172 38.4646C25.4223 35.8951 26.8851 29.4973 26.8851 29.4973C27.0274 28.9133 27.1569 28.3293 27.2863 27.7583C28.3737 22.8789 28.6326 16.0658 26.4967 11.3291C25.9401 11.7443 25.3188 10.0573 29.4092 9.91455C31.7004 11.5367 33.3832 14.6383 34.0305 17.3246C35.545 23.6056 35.0919 30.0034 32.969 35.8172C32.9819 35.8172 32.9819 35.8172 32.9949 35.8042C32.4771 37.1409 32.0888 37.9714 32.0888 37.9714C31.0273 40.3593 29.694 42.6303 28.063 44.7196Z" fill="url(#paint1_linear)"/>
<path opacity="0.52" d="M23.2217 39.4639C23.4158 39.1394 23.623 38.815 23.7912 38.4776L23.8042 38.4646C25.4093 35.8951 26.8721 29.4973 26.8721 29.4973C26.9627 29.108 27.0533 28.7187 27.1439 28.3293L34.3929 30.4446C34.0692 32.2744 33.6032 34.0783 32.9689 35.8172C32.9819 35.8172 32.9819 35.8172 32.9948 35.8043C32.477 37.1409 32.0887 37.9715 32.0887 37.9715C31.0531 40.2944 29.7458 42.5135 28.1795 44.5509L23.2217 39.4639Z" fill="url(#paint2_linear)"/>
<path d="M21.8884 6.85191C23.7007 5.67097 27.4546 7.72138 28.9044 8.81148C31.2603 10.5894 33.0985 13.3016 33.8363 16.6887C30.2118 8.08475 26.7944 11.6924 26.7944 11.6924C23.9337 14.4306 24.8916 26.5385 27.3252 34.1561C33.215 49.1838 41.2277 45.9525 41.4607 45.8616C41.1888 46.0303 40.9041 46.1731 40.6063 46.2639C37.9656 47.1075 35.2343 46.6403 32.6842 45.2906C18.5358 37.7638 13.0861 12.5879 21.8884 6.85191Z" fill="url(#paint3_linear)"/>
<path d="M10.9632 0.090841C11.002 0.0648864 11.0797 0.0259546 11.1574 0L18.0439 3.19241C7.84354 11.446 6.09604 25.9935 9.64285 37.5173C10.3419 39.7884 11.468 41.9037 12.8402 43.8762C14.6783 46.6793 20.8917 50.9748 26.7167 46.1602C22.2897 50.261 16.6588 48.4183 11.4939 45.6411C-4.46674 37.0631 -1.95549 9.95358 10.9632 0.090841Z" fill="url(#paint4_linear)"/>
<defs>
<linearGradient id="paint0_linear" x1="40.2135" y1="3.69934" x2="39.2661" y2="64.0416" gradientUnits="userSpaceOnUse">
<stop offset="0.00065317" stop-color="#5E6D7D"/>
<stop offset="0.1254" stop-color="#727C87"/>
<stop offset="0.3093" stop-color="#98989A"/>
<stop offset="0.3589" stop-color="#A1A2A4"/>
<stop offset="0.5297" stop-color="#BEBFC1"/>
<stop offset="0.627" stop-color="#C9CACC"/>
<stop offset="0.7068" stop-color="#AFB2B8"/>
<stop offset="0.832" stop-color="#8B939C"/>
<stop offset="0.9342" stop-color="#757F8B"/>
<stop offset="1" stop-color="#6D7885"/>
</linearGradient>
<linearGradient id="paint1_linear" x1="23.1837" y1="13.9198" x2="23.1837" y2="48.7945" gradientUnits="userSpaceOnUse">
<stop offset="0.00502804" stop-color="#22448D"/>
<stop offset="0.4862" stop-color="#3795D0"/>
<stop offset="0.4916" stop-color="#3694D0"/>
<stop offset="0.6962" stop-color="#1885C6"/>
<stop offset="0.8727" stop-color="#067BC1"/>
<stop offset="1" stop-color="#0078BE"/>
</linearGradient>
<linearGradient id="paint2_linear" x1="30.0691" y1="34.2416" x2="23.9199" y2="39.8482" gradientUnits="userSpaceOnUse">
<stop stop-color="white"/>
<stop offset="0.00541961" stop-color="#F1F7FB"/>
<stop offset="0.0247345" stop-color="#C6DDED"/>
<stop offset="0.0461393" stop-color="#9FC5E1"/>
<stop offset="0.0692195" stop-color="#7DB1D7"/>
<stop offset="0.0944243" stop-color="#61A0CE"/>
<stop offset="0.1225" stop-color="#4A92C7"/>
<stop offset="0.1547" stop-color="#3887C1"/>
<stop offset="0.1935" stop-color="#2B80BD"/>
<stop offset="0.2457" stop-color="#247CBB"/>
<stop offset="0.3684" stop-color="#227ABB"/>
<stop offset="0.49" stop-color="#569ACB"/>
<stop offset="0.6722" stop-color="#9EC5E1"/>
<stop offset="0.824" stop-color="#D2E4F1"/>
<stop offset="0.9376" stop-color="#F3F8FB"/>
<stop offset="1" stop-color="white"/>
</linearGradient>
<linearGradient id="paint3_linear" x1="28.9654" y1="34.5893" x2="33.8747" y2="3.18663" gradientUnits="userSpaceOnUse">
<stop offset="0.00502804" stop-color="#22448D"/>
<stop offset="0.4862" stop-color="#3795D0"/>
<stop offset="0.4916" stop-color="#3694D0"/>
<stop offset="0.6962" stop-color="#1885C6"/>
<stop offset="0.8727" stop-color="#067BC1"/>
<stop offset="1" stop-color="#0078BE"/>
</linearGradient>
<linearGradient id="paint4_linear" x1="13.5561" y1="-2.36789" x2="13.5561" y2="57.4657" gradientUnits="userSpaceOnUse">
<stop offset="0.00065317" stop-color="#5E6D7D"/>
<stop offset="0.1254" stop-color="#727C87"/>
<stop offset="0.3093" stop-color="#98989A"/>
<stop offset="0.3589" stop-color="#A1A2A4"/>
<stop offset="0.5297" stop-color="#BEBFC1"/>
<stop offset="0.627" stop-color="#C9CACC"/>
<stop offset="0.7068" stop-color="#AFB2B8"/>
<stop offset="0.832" stop-color="#8B939C"/>
<stop offset="0.9342" stop-color="#757F8B"/>
<stop offset="1" stop-color="#6D7885"/>
</linearGradient>
</defs>
</svg>
