<svg width="23" height="24" viewBox="0 0 23 24" fill="none" xmlns="http://www.w3.org/2000/svg">
<path d="M7.7506 12C7.7506 9.92901 9.42901 8.2497 11.5 8.2497C13.571 8.2497 15.2503 9.92901 15.2503 12C15.2503 14.071 13.571 15.7503 11.5 15.7503C9.42901 15.7503 7.7506 14.071 7.7506 12ZM5.72326 12C5.72326 15.1905 8.3095 17.7767 11.5 17.7767C14.6905 17.7767 17.2767 15.1905 17.2767 12C17.2767 8.8095 14.6905 6.22326 11.5 6.22326C8.3095 6.22326 5.72326 8.8095 5.72326 12ZM16.1554 5.99421C16.1553 6.26121 16.2344 6.52225 16.3826 6.74432C16.5309 6.96639 16.7417 7.1395 16.9883 7.24178C17.2349 7.34406 17.5064 7.3709 17.7683 7.31891C18.0302 7.26693 18.2708 7.13845 18.4596 6.94973C18.6485 6.761 18.7772 6.5205 18.8294 6.25865C18.8816 5.9968 18.8549 5.72535 18.7529 5.47863C18.6508 5.2319 18.4778 5.02099 18.2559 4.87257C18.0339 4.72414 17.773 4.64486 17.506 4.64475H17.5054C17.1475 4.64492 16.8043 4.78713 16.5512 5.04015C16.2981 5.29317 16.1557 5.63631 16.1554 5.99421ZM6.955 21.1572C5.85817 21.1073 5.26201 20.9246 4.86583 20.7702C4.34059 20.5657 3.96583 20.3222 3.57181 19.9287C3.17779 19.5352 2.93389 19.1608 2.73031 18.6356C2.57587 18.2396 2.39317 17.6433 2.34331 16.5464C2.28877 15.3606 2.27788 15.0044 2.27788 12.0001C2.27788 8.9958 2.28967 8.64057 2.34331 7.45374C2.39326 6.35691 2.57731 5.76174 2.73031 5.36457C2.93479 4.83933 3.17833 4.46457 3.57181 4.07055C3.96529 3.67653 4.33969 3.43263 4.86583 3.22905C5.26183 3.07461 5.85817 2.89191 6.955 2.84205C8.14084 2.78751 8.49706 2.77662 11.5 2.77662C14.5029 2.77662 14.8595 2.78841 16.0463 2.84205C17.1432 2.892 17.7383 3.07605 18.1355 3.22905C18.6608 3.43263 19.0355 3.67707 19.4295 4.07055C19.8236 4.46403 20.0666 4.83933 20.271 5.36457C20.4255 5.76057 20.6082 6.35691 20.658 7.45374C20.7126 8.64057 20.7235 8.9958 20.7235 12.0001C20.7235 15.0044 20.7126 15.3596 20.658 16.5464C20.6081 17.6433 20.4245 18.2394 20.271 18.6356C20.0666 19.1608 19.823 19.5356 19.4295 19.9287C19.0361 20.3218 18.6608 20.5657 18.1355 20.7702C17.7395 20.9247 17.1432 21.1074 16.0463 21.1572C14.8605 21.2118 14.5043 21.2227 11.5 21.2227C8.49571 21.2227 8.14048 21.2118 6.955 21.1572ZM6.86185 0.81813C5.66422 0.87267 4.84585 1.06257 4.13116 1.34067C3.391 1.62786 2.76442 2.01315 2.13829 2.63829C1.51216 3.26343 1.12786 3.891 0.84067 4.63116C0.56257 5.3463 0.37267 6.16422 0.31813 7.36185C0.26269 8.56137 0.25 8.94486 0.25 12C0.25 15.0551 0.26269 15.4386 0.31813 16.6381C0.37267 17.8359 0.56257 18.6537 0.84067 19.3688C1.12786 20.1085 1.51225 20.7368 2.13829 21.3617C2.76433 21.9866 3.391 22.3713 4.13116 22.6593C4.8472 22.9374 5.66422 23.1273 6.86185 23.1819C8.062 23.2364 8.44486 23.25 11.5 23.25C14.5551 23.25 14.9386 23.2373 16.1381 23.1819C17.3359 23.1273 18.1537 22.9374 18.8688 22.6593C19.6085 22.3713 20.2356 21.9868 20.8617 21.3617C21.4878 20.7366 21.8713 20.1085 22.1593 19.3688C22.4374 18.6537 22.6282 17.8358 22.6819 16.6381C22.7364 15.4377 22.7491 15.0551 22.7491 12C22.7491 8.94486 22.7364 8.56137 22.6819 7.36185C22.6273 6.16413 22.4374 5.34585 22.1593 4.63116C21.8713 3.89145 21.4868 3.26442 20.8617 2.63829C20.2366 2.01216 19.6085 1.62786 18.8697 1.34067C18.1537 1.06257 17.3358 0.87177 16.139 0.81813C14.9395 0.76359 14.556 0.75 11.5009 0.75C8.44576 0.75 8.062 0.76269 6.86185 0.81813Z" fill="white"/>
</svg>
