<svg width="104" height="104" viewBox="0 0 104 104" fill="none" xmlns="http://www.w3.org/2000/svg">
<path d="M92.6545 0C86.3975 0 81.3091 5.08844 81.3091 11.3455C81.3091 13.3025 81.8064 15.1443 82.6819 16.7535L64.0961 35.3392C61.534 33.3443 58.327 32.1455 54.8364 32.1455C51.3457 32.1455 48.1388 33.3443 45.5747 35.3373L31.0733 20.8359C31.7389 19.7108 32.1455 18.4175 32.1455 17.0182C32.1455 12.8468 28.7532 9.45455 24.5818 9.45455C20.4105 9.45455 17.0182 12.8468 17.0182 17.0182C17.0182 21.1895 20.4105 24.5818 24.5818 24.5818C25.9811 24.5818 27.2745 24.1753 28.3996 23.5097L42.9009 38.0111C40.9079 40.5751 39.7091 43.7821 39.7091 47.2727C39.7091 50.7633 40.9079 53.9703 42.9009 56.5325L18.9545 80.4809C16.9388 78.6524 14.2745 77.5273 11.3455 77.5273C5.08844 77.5273 0 82.6157 0 88.8727C0 95.1297 5.08844 100.218 11.3455 100.218C17.6025 100.218 22.6909 95.1297 22.6909 88.8727C22.6909 86.9156 22.1936 85.0739 21.3181 83.4647L45.5766 59.2063C47.6679 60.8324 50.1904 61.9216 52.9473 62.2676V81.4793C47.5904 82.3831 43.4928 87.0423 43.4928 92.6545C43.4928 98.9116 48.5812 104 54.8383 104C61.0953 104 66.1837 98.9116 66.1837 92.6545C66.1837 87.0442 62.0861 82.385 56.7292 81.4793V62.2676C59.4861 61.9216 62.0086 60.8324 64.0999 59.2063L78.6013 73.7076C77.9338 74.8346 77.5273 76.128 77.5273 77.5273C77.5273 81.6986 80.9196 85.0909 85.0909 85.0909C89.2623 85.0909 92.6545 81.6986 92.6545 77.5273C92.6545 73.3559 89.2623 69.9636 85.0909 69.9636C83.6916 69.9636 82.3983 70.3702 81.2732 71.0358L66.7718 56.5344C68.7648 53.9703 69.9636 50.7633 69.9636 47.2727C69.9636 43.7821 68.7648 40.5751 66.7718 38.0129L85.0474 19.7373C87.0612 21.5658 89.7255 22.6909 92.6545 22.6909C98.9116 22.6909 104 17.6025 104 11.3455C104 5.08844 98.9116 0 92.6545 0ZM20.8 17.0182C20.8 14.9325 22.4961 13.2364 24.5818 13.2364C26.6675 13.2364 28.3636 14.9325 28.3636 17.0182C28.3636 19.1039 26.6675 20.8 24.5818 20.8C22.4961 20.8 20.8 19.1039 20.8 17.0182ZM11.3455 96.4364C7.17411 96.4364 3.78182 93.0441 3.78182 88.8727C3.78182 84.7014 7.17411 81.3091 11.3455 81.3091C15.5168 81.3091 18.9091 84.7014 18.9091 88.8727C18.9091 93.0441 15.5168 96.4364 11.3455 96.4364ZM62.4 92.6545C62.4 96.8259 59.0077 100.218 54.8364 100.218C50.665 100.218 47.2727 96.8259 47.2727 92.6545C47.2727 88.4832 50.665 85.0909 54.8364 85.0909C59.0077 85.0909 62.4 88.4832 62.4 92.6545ZM54.8364 58.6182C48.5793 58.6182 43.4909 53.5297 43.4909 47.2727C43.4909 41.0157 48.5793 35.9273 54.8364 35.9273C61.0934 35.9273 66.1818 41.0157 66.1818 47.2727C66.1818 53.5297 61.0934 58.6182 54.8364 58.6182ZM88.8727 77.5273C88.8727 79.6129 87.1766 81.3091 85.0909 81.3091C83.0052 81.3091 81.3091 79.6129 81.3091 77.5273C81.3091 75.4416 83.0052 73.7455 85.0909 73.7455C87.1766 73.7455 88.8727 75.4416 88.8727 77.5273ZM92.6545 18.9091C88.4832 18.9091 85.0909 15.5168 85.0909 11.3455C85.0909 7.17411 88.4832 3.78182 92.6545 3.78182C96.8259 3.78182 100.218 7.17411 100.218 11.3455C100.218 15.5168 96.8259 18.9091 92.6545 18.9091Z" fill="#6A7081"/>
<path fill-rule="evenodd" clip-rule="evenodd" d="M54.7189 47.1832C55.0336 47.5461 55.1805 48.0158 55.1176 48.5281C55.0127 49.4675 54.1734 50.1293 53.2502 50.0012C52.327 49.8944 51.6766 49.0405 51.8025 48.1012C51.8654 47.5888 52.1382 47.1618 52.5158 46.9057L53.2082 44.8562L54.2783 41.654L54.5511 45.027L54.7189 47.1832Z" fill="#6A7081"/>
<path d="M57.0479 40.8639C58.8942 42.3156 60.0902 44.5785 60.0902 47.119C60.0902 47.2257 60.0902 47.3325 60.0902 47.4392L64.9789 47.8875C64.9789 47.7167 64.9999 47.5459 64.9999 47.3965C64.9999 43.0628 62.3982 39.3482 58.6844 37.7898L57.0479 40.8639Z" fill="#6A7081"/>
<path d="M60.0064 48.1865C59.7126 50.3427 58.5796 52.2 56.9431 53.4382L60.468 56C62.8179 54.3775 64.4755 51.773 64.8741 48.7629L60.0064 48.1865Z" fill="#6A7081"/>
<path d="M58.0131 37.5551C56.985 37.2135 55.8939 37 54.7399 37C50.2289 37 46.4102 39.9674 45.0464 44.0876C45.0464 44.109 45.0464 44.1303 45.0674 44.1303C45.0883 44.1303 45.1093 44.1303 45.1093 44.109C46.2843 41.2483 49.0539 39.2202 52.306 39.2202C53.8377 39.2202 55.2645 39.6685 56.4604 40.4584L58.0131 37.5551Z" fill="#6A7081"/>
</svg>
