<svg width="23" height="22" viewBox="0 0 23 22" fill="none" xmlns="http://www.w3.org/2000/svg">
<path d="M11.8908 21.61C11.8256 21.61 11.7654 21.61 11.7203 21.6C11.6851 21.61 11.645 21.61 11.6049 21.61C10.2658 21.61 9.37302 20.9781 8.57557 20.4214C8.00882 20.0201 7.47718 19.639 6.85025 19.5336C6.54431 19.4785 6.23335 19.4584 5.94747 19.4584C5.41583 19.4584 4.99453 19.5386 4.69361 19.5988C4.50302 19.6339 4.34253 19.664 4.21714 19.664C4.08674 19.664 3.92123 19.6289 3.85603 19.4082C3.80086 19.2277 3.76575 19.0572 3.73064 18.8917C3.64036 18.4754 3.56513 18.2196 3.40965 18.1945C1.73449 17.9387 0.731401 17.5525 0.535799 17.0961C0.520752 17.046 0.500691 16.9958 0.500691 16.9557C0.49066 16.8153 0.590969 16.6999 0.731402 16.6748C2.0605 16.4541 3.25417 15.747 4.26228 14.5834C5.04469 13.6806 5.42586 12.8079 5.46097 12.7126C5.46097 12.7026 5.471 12.7026 5.471 12.7026C5.66159 12.3064 5.70171 11.9703 5.58636 11.6945C5.37069 11.1779 4.6585 10.9572 4.172 10.8067C4.04661 10.7716 3.94129 10.7315 3.85101 10.7014C3.43473 10.5359 2.7426 10.1848 2.83288 9.69833C2.89808 9.34725 3.36451 9.09648 3.74569 9.09648C3.85101 9.09648 3.94129 9.11153 4.01652 9.15165C4.44283 9.34725 4.82902 9.44756 5.16004 9.44756C5.57131 9.44756 5.76691 9.29208 5.81707 9.24193C5.80704 9.02125 5.79199 8.79054 5.77695 8.57487C5.67664 7.04015 5.56128 5.13427 6.04778 4.04091C7.50728 0.770833 10.6068 0.51003 11.5246 0.51003C11.5497 0.51003 11.9259 0.5 11.9259 0.5C11.9409 0.5 11.961 0.5 11.9811 0.5C12.8989 0.5 15.9984 0.755787 17.4579 4.03088C17.9494 5.12424 17.8291 7.03513 17.7288 8.56484L17.7187 8.64007C17.7087 8.84571 17.6937 9.04131 17.6836 9.24193C17.7338 9.28205 17.9143 9.43252 18.2855 9.43753C18.6065 9.4275 18.9575 9.32218 19.3588 9.14162C19.4842 9.08645 19.6146 9.06639 19.7099 9.06639C19.8503 9.06639 19.9907 9.1015 20.1111 9.14162H20.1211C20.4572 9.26701 20.6778 9.50273 20.6778 9.74849C20.6879 9.9792 20.5073 10.3303 19.6497 10.6763C19.5594 10.7115 19.4541 10.7516 19.3287 10.7817C18.8522 10.9271 18.14 11.1578 17.9143 11.6694C17.7889 11.9402 17.8391 12.2863 18.0297 12.6775C18.0297 12.6875 18.0397 12.6875 18.0397 12.6875C18.0949 12.828 19.5444 16.1181 22.7693 16.6548C22.9097 16.6798 23 16.7952 23 16.9356C23 16.9858 22.99 17.0359 22.9649 17.0811C22.7693 17.5425 21.7762 17.9187 20.091 18.1795C19.9356 18.2045 19.8603 18.4603 19.7701 18.8766C19.7349 19.0471 19.6948 19.2126 19.6447 19.3932C19.5945 19.5587 19.4892 19.649 19.3086 19.649H19.2836C19.1682 19.649 19.0127 19.6339 18.8071 19.5938C18.446 19.5186 18.0498 19.4634 17.5532 19.4634C17.2573 19.4634 16.9514 19.4885 16.6504 19.5386C16.0285 19.639 15.4919 20.0251 14.9251 20.4264C14.1176 20.9781 13.2199 21.61 11.8908 21.61Z" fill="white"/>
</svg>
