<svg width="115" height="88" viewBox="0 0 115 88" fill="none" xmlns="http://www.w3.org/2000/svg">
<g clip-path="url(#clip0)">
<path d="M11.403 44.3729C9.44026 44.1761 7.12231 44.0068 4.82259 43.7002C1.65761 43.2747 -0.23226 41.1468 0.0227588 38.447C0.286886 35.6557 2.44544 33.8665 5.66051 34.1273C9.00763 34.3973 12.6007 34.0496 15.3877 37.2527C15.8795 36.397 16.2985 35.7335 16.6582 35.0334C18.3705 31.7204 20.0736 28.4028 21.7631 25.0761C23.8215 21.0356 26.9728 18.1115 31.4402 17.4801C39.3094 16.3727 47.2423 15.7275 55.1525 14.9084C55.5031 14.8718 55.8674 15.0182 56.2408 15.0823C56.2408 16.6106 56.2408 18.0337 56.2408 19.6124C52.8983 19.8138 49.6559 19.8824 46.4454 20.2394C41.855 20.7519 37.2328 21.2186 32.7381 22.2253C30.7526 22.6692 28.4665 23.9779 27.3326 25.6069C24.8826 29.1258 23.0838 33.1023 20.866 37.1841C32.8428 36.6121 44.4143 36.0584 56.1452 35.5001C56.1452 46.1117 56.1452 56.1376 56.1452 66.5708C54.105 66.5708 52.0968 66.5708 50.0885 66.5708C47.9618 66.5708 45.8397 66.612 43.713 66.5617C41.8459 66.5159 40.7074 66.9826 40.6938 69.2248C40.6801 71.4259 41.7047 71.9887 43.631 71.9613C47.7205 71.9064 51.8144 71.943 55.9266 71.943C56.6598 73.6269 56.1953 74.2264 54.4876 74.1806C41.5954 73.842 28.6988 73.5812 15.8066 73.2059C12.1544 73.1007 10.2736 71.0598 10.2008 67.3807C10.1233 63.569 10.0186 59.7481 10.2144 55.9455C10.4102 52.1749 10.9704 48.4272 11.403 44.3729ZM27.8608 61.4732C28.0111 61.4915 31.4083 60.9195 32.9658 60.4162C33.9221 60.105 35.056 59.0571 35.2792 58.1328C35.4613 57.3915 34.6188 56.0004 33.8447 55.4924C31.4402 53.9046 28.7716 52.7286 26.3626 51.1499C24.1221 49.6856 21.7586 49.8045 19.345 50.102C18.7348 50.1752 17.9971 50.5641 17.6373 51.0446C16.2301 52.9528 17.2593 57.9955 19.4907 58.9335C22.1639 60.0592 25.4837 61.1758 27.8608 61.4732Z" fill="#6A7081"/>
<path d="M114.991 48.5416C114.991 58.4531 114.995 68.3692 114.991 78.2807C114.986 84.7053 111.753 87.9771 105.341 87.9862C92.745 88.0045 80.1489 88.0045 67.5482 87.9862C61.7192 87.9771 58.3539 84.6641 58.3402 78.7566C58.2992 58.7002 58.2992 38.6484 58.3402 18.5921C58.3539 12.3642 61.6281 9.15646 67.7805 9.10155C68.6138 9.0924 69.4609 9.18849 70.2806 9.08782C72.134 8.85902 72.635 9.69185 72.5667 11.4444C72.512 12.8584 72.0065 13.348 70.654 13.2519C69.5975 13.1741 68.5319 13.229 67.4663 13.2519C63.9734 13.3389 62.5662 14.762 62.5162 18.3358C62.4797 20.9258 62.5116 23.5203 62.5116 26.1149C62.5116 43.4257 62.5071 60.7319 62.5116 78.0427C62.5116 82.6049 63.8004 83.9228 68.3042 83.9228C80.5998 83.932 92.8908 83.932 105.186 83.9274C109.376 83.9274 110.865 82.486 110.865 78.3356C110.883 58.5858 110.888 38.836 110.874 19.0863C110.87 14.5378 109.544 13.2519 105.022 13.2336C104.417 13.2336 103.806 13.1924 103.201 13.2382C101.766 13.3434 100.778 13.229 100.751 11.2705C100.724 9.27086 101.643 8.96885 103.233 9.0924C104.062 9.15646 104.899 9.0924 105.737 9.1107C111.721 9.23425 114.964 12.5289 114.973 18.5692C115.009 28.563 114.991 38.5523 114.991 48.5416Z" fill="#6A7081"/>
<path d="M86.6337 18.2489C83.751 18.2489 80.873 18.2809 77.9903 18.2398C75.4811 18.2031 74.5977 17.2925 74.5567 14.762C74.5248 13.0094 74.584 11.2569 74.5476 9.50427C74.502 7.35815 75.4584 6.12723 77.6397 6.20502C79.3474 6.2645 80.281 5.52778 80.8912 3.97196C81.9113 1.36367 83.956 -0.0228452 86.702 3.45279e-05C89.4434 0.0229143 91.5063 1.38197 92.4672 4.03602C93.0547 5.66048 94.1021 6.2279 95.7506 6.20959C97.7725 6.18214 98.7972 7.28952 98.7835 9.35327C98.7698 11.1059 98.8108 12.8584 98.7835 14.611C98.7471 17.3612 97.9729 18.1848 95.277 18.2306C92.3989 18.2809 89.5163 18.2398 86.6337 18.2398C86.6337 18.2398 86.6337 18.2443 86.6337 18.2489ZM86.7703 9.21141C88.2958 9.05583 89.4161 8.19555 89.6028 6.41551C89.7804 4.74987 88.4097 3.25353 86.7475 3.27184C84.9624 3.29014 83.915 4.29227 83.6827 6.0174C83.4732 7.60068 84.9578 9.15192 86.7703 9.21141Z" fill="#6A7081"/>
<path d="M11.7172 74.9677C17.5872 75.2148 23.1339 74.7893 28.717 75.1691C29.9875 75.256 32.2235 74.5101 32.4739 77.274C32.8337 81.2413 31.5586 84.0372 28.8718 84.1882C24.2587 84.4491 19.6091 84.4125 14.996 84.1516C13.0469 84.0418 11.8219 82.4174 11.7309 80.3261C11.6534 78.4317 11.7172 76.5281 11.7172 74.9677Z" fill="#6A7081"/>
<path d="M83.8284 27.9087H66.4553C65.9134 27.9087 65.4762 27.4694 65.4762 26.9249V25.1174C65.4762 24.5728 65.9134 24.1335 66.4553 24.1335H83.8284C84.3704 24.1335 84.8075 24.5728 84.8075 25.1174V26.9249C84.8121 27.4694 84.3704 27.9087 83.8284 27.9087Z" fill="#6A7081"/>
<path d="M101.921 38.1176H88.9926C87.9497 38.1176 87.1027 37.2665 87.1027 36.2186V23.2275C87.1027 22.1796 87.9497 21.3285 88.9926 21.3285H101.921C102.964 21.3285 103.811 22.1796 103.811 23.2275V36.2186C103.816 37.2665 102.964 38.1176 101.921 38.1176ZM88.9971 23.1589C88.9607 23.1589 88.9288 23.1909 88.9288 23.2275V36.2186C88.9288 36.2552 88.9607 36.2873 88.9971 36.2873H101.926C101.962 36.2873 101.994 36.2552 101.994 36.2186V23.2275C101.994 23.1909 101.962 23.1589 101.926 23.1589H88.9971Z" fill="#6A7081"/>
<path d="M76.0823 33.3586H66.3187C65.8542 33.3586 65.4807 32.9788 65.4807 32.5166V30.4254C65.4807 29.9587 65.8587 29.5834 66.3187 29.5834H76.0823C76.5468 29.5834 76.9202 29.9632 76.9202 30.4254V32.5166C76.9202 32.9834 76.5468 33.3586 76.0823 33.3586Z" fill="#6A7081"/>
<path d="M76.0823 47.663H66.3187C65.8542 47.663 65.4807 47.2832 65.4807 46.8211V44.7299C65.4807 44.2631 65.8587 43.8879 66.3187 43.8879H76.0823C76.5468 43.8879 76.9202 44.2677 76.9202 44.7299V46.8211C76.9202 47.2878 76.5468 47.663 76.0823 47.663Z" fill="#6A7081"/>
<path d="M82.2164 67.5089H66.3187C65.8542 67.5089 65.4807 67.1291 65.4807 66.6669V64.5757C65.4807 64.109 65.8587 63.7338 66.3187 63.7338H82.2164C82.6809 63.7338 83.0543 64.1136 83.0543 64.5757V66.6669C83.0543 67.1337 82.6809 67.5089 82.2164 67.5089Z" fill="#6A7081"/>
<path d="M79.4703 73.8878H66.3141C65.8496 73.8878 65.4762 73.508 65.4762 73.0458V70.9546C65.4762 70.4878 65.8542 70.1126 66.3141 70.1126H79.4703C79.9348 70.1126 80.3083 70.4924 80.3083 70.9546V73.0458C80.3128 73.5125 79.9348 73.8878 79.4703 73.8878Z" fill="#6A7081"/>
<path d="M73.7142 52.8018H66.3187C65.8542 52.8018 65.4807 52.422 65.4807 51.9598V49.8686C65.4807 49.4018 65.8587 49.0266 66.3187 49.0266H73.7142C74.1787 49.0266 74.5521 49.4064 74.5521 49.8686V51.9598C74.5521 52.422 74.1742 52.8018 73.7142 52.8018Z" fill="#6A7081"/>
<path d="M89.407 27.3824L95.1358 30.16L107.39 25.6985L107.805 26.4123L93.715 33.4639L88.5144 27.5792L89.407 27.3824Z" fill="#6A7081"/>
<path d="M101.921 58.4028H88.9926C87.9497 58.4028 87.1027 57.5517 87.1027 56.5038V43.5127C87.1027 42.4648 87.9497 41.6137 88.9926 41.6137H101.921C102.964 41.6137 103.811 42.4648 103.811 43.5127V56.5038C103.816 57.5517 102.964 58.4028 101.921 58.4028ZM88.9971 43.4441C88.9607 43.4441 88.9288 43.4761 88.9288 43.5127V56.5038C88.9288 56.5404 88.9607 56.5725 88.9971 56.5725H101.926C101.962 56.5725 101.994 56.5404 101.994 56.5038V43.5127C101.994 43.4761 101.962 43.4441 101.926 43.4441H88.9971Z" fill="#6A7081"/>
<path d="M89.407 47.6676L95.1358 50.4452L107.39 45.9836L107.805 46.6975L93.715 53.749L88.5144 47.8644L89.407 47.6676Z" fill="#6A7081"/>
<path d="M101.921 78.5049H88.9926C87.9497 78.5049 87.1027 77.6538 87.1027 76.6059V63.6148C87.1027 62.5669 87.9497 61.7158 88.9926 61.7158H101.921C102.964 61.7158 103.811 62.5669 103.811 63.6148V76.6059C103.816 77.6538 102.964 78.5049 101.921 78.5049ZM88.9971 63.5461C88.9607 63.5461 88.9288 63.5782 88.9288 63.6148V76.6059C88.9288 76.6425 88.9607 76.6745 88.9971 76.6745H101.926C101.962 76.6745 101.994 76.6425 101.994 76.6059V63.6148C101.994 63.5782 101.962 63.5461 101.926 63.5461H88.9971Z" fill="#6A7081"/>
<path d="M89.407 67.7697L95.1358 70.5473L107.39 66.0858L107.805 66.7996L93.715 73.8557L88.5144 67.9665L89.407 67.7697Z" fill="#6A7081"/>
</g>
<defs>
<clipPath id="clip0">
<rect width="115" height="88" fill="white"/>
</clipPath>
</defs>
</svg>
