<svg width="22" height="18" viewBox="0 0 22 18" fill="none" xmlns="http://www.w3.org/2000/svg">
<path d="M19.5719 4.35938C19.5719 4.55625 19.5719 4.75313 19.5719 4.92188C19.5719 10.7438 15.1281 17.4656 7.02812 17.4656C4.525 17.4656 2.21875 16.7344 0.25 15.4969C0.5875 15.525 0.953125 15.5531 1.29062 15.5531C3.34375 15.5531 5.25625 14.85 6.775 13.6688C4.83437 13.6406 3.20312 12.3469 2.66875 10.6031C2.95 10.6594 3.20312 10.6875 3.5125 10.6875C3.90625 10.6875 4.3 10.6313 4.66562 10.5188C2.64062 10.125 1.12187 8.35313 1.12187 6.21563C1.12187 6.1875 1.12187 6.1875 1.12187 6.15938C1.7125 6.49688 2.3875 6.69375 3.11875 6.72188C1.9375 5.93438 1.15 4.58438 1.15 3.0375C1.15 2.22188 1.375 1.4625 1.74062 0.815625C3.90625 3.4875 7.16875 5.23125 10.825 5.42813C10.7406 5.11875 10.7125 4.75313 10.7125 4.41563C10.7125 1.96875 12.6812 0 15.1281 0C16.3937 0 17.5469 0.534375 18.3344 1.37813C19.3469 1.18125 20.275 0.815625 21.1469 0.309375C20.8094 1.35 20.1062 2.19375 19.2062 2.75625C20.1062 2.64375 20.95 2.41875 21.7375 2.05313C21.175 2.95312 20.4437 3.74063 19.5719 4.35938Z" fill="white"/>
</svg>
