<svg width="325" height="52" viewBox="0 0 325 52" fill="none" xmlns="http://www.w3.org/2000/svg">
<path d="M175.645 39.8532C181.755 30.7561 179.813 17.1819 174.843 8.56494L181.755 12.8215C185.418 19.3101 186.946 25.9675 186.04 33.8447C185.574 37.9585 183.373 45.0311 179.619 46.238C176.979 47.0815 174.26 46.5754 171.697 45.2647L171.115 42.4486C172.849 43.4349 174.558 41.4753 175.645 39.8532Z" fill="url(#paint0_linear)"/>
<path d="M167.063 44.7196C162.571 50.4816 156.228 48.7815 150.507 45.641C150.157 45.4464 151.646 43.5776 151.853 43.8761C153.691 46.5105 155.491 45.9395 158.157 44.0578C160.164 42.6433 161.652 40.6837 162.804 38.4776L162.817 38.4646C164.422 35.8951 165.885 29.4973 165.885 29.4973C166.027 28.9133 166.157 28.3293 166.286 27.7583C167.374 22.8789 167.633 16.0658 165.497 11.3291C164.94 11.7443 164.319 10.0573 168.409 9.91455C170.7 11.5367 172.383 14.6383 173.03 17.3246C174.545 23.6056 174.092 30.0034 171.969 35.8172C171.982 35.8172 171.982 35.8172 171.995 35.8042C171.477 37.1409 171.089 37.9714 171.089 37.9714C170.027 40.3593 168.694 42.6303 167.063 44.7196Z" fill="url(#paint1_linear)"/>
<path opacity="0.52" d="M162.222 39.4639C162.416 39.1394 162.623 38.815 162.791 38.4776L162.804 38.4646C164.409 35.8951 165.872 29.4973 165.872 29.4973C165.963 29.108 166.053 28.7187 166.144 28.3293L173.393 30.4446C173.069 32.2744 172.603 34.0783 171.969 35.8172C171.982 35.8172 171.982 35.8172 171.995 35.8043C171.477 37.1409 171.089 37.9715 171.089 37.9715C170.053 40.2944 168.746 42.5135 167.179 44.5509L162.222 39.4639Z" fill="url(#paint2_linear)"/>
<path d="M160.888 6.85191C162.701 5.67097 166.455 7.72138 167.904 8.81148C170.26 10.5894 172.098 13.3016 172.836 16.6887C169.212 8.08475 165.794 11.6924 165.794 11.6924C162.934 14.4306 163.892 26.5385 166.325 34.1561C172.215 49.1838 180.228 45.9525 180.461 45.8616C180.189 46.0303 179.904 46.1731 179.606 46.2639C176.966 47.1075 174.234 46.6403 171.684 45.2906C157.536 37.7638 152.086 12.5879 160.888 6.85191Z" fill="url(#paint3_linear)"/>
<path d="M149.963 0.090841C150.002 0.0648864 150.08 0.0259546 150.157 0L157.044 3.19241C146.844 11.446 145.096 25.9935 148.643 37.5173C149.342 39.7884 150.468 41.9037 151.84 43.8762C153.678 46.6793 159.892 50.9748 165.717 46.1602C161.29 50.261 155.659 48.4183 150.494 45.6411C134.533 37.0631 137.045 9.95358 149.963 0.090841Z" fill="url(#paint4_linear)"/>
<path d="M127.271 5.80087C127.271 7.11158 126.21 8.16274 124.915 8.16274C121.783 8.03297 121.783 3.5558 124.915 3.42603C126.223 3.42603 127.271 4.49016 127.271 5.80087Z" fill="#005EAD"/>
<path d="M33.0346 0.0660693C33.0346 0.053092 33.0346 0.0271374 33.0346 0.0141602H28.3098C28.3098 6.71044 28.3098 13.4197 28.3098 20.116C28.3098 21.8939 28.3098 23.6847 28.3098 25.4626C28.3098 26.3062 28.3098 27.1497 28.3098 27.9932C28.3098 29.4986 28.2192 31.3673 26.8988 32.3406C25.8892 33.0414 24.5947 33.0543 23.4167 33.0284C19.5463 33.1452 18.8085 31.1856 18.8732 27.6947C18.8732 26.8642 18.8732 26.0466 18.8732 25.2161C18.8732 23.4382 18.8732 21.6473 18.8732 19.8694C18.8732 13.251 18.8732 6.63258 18.8732 0.0141602H14.1484C14.1484 6.71044 14.1484 13.4197 14.1484 20.116C14.1484 21.8939 14.1484 23.6847 14.1484 25.4626C14.1484 26.3062 14.1484 27.1497 14.1484 27.9932C14.1484 28.8237 14.1225 29.6673 13.9154 30.4719C13.7212 31.1986 13.3717 31.9123 12.7374 32.3406C11.7278 33.0414 10.4333 33.0543 9.25535 33.0284C5.38491 33.1452 4.64707 31.1856 4.71179 27.6947C4.71179 26.8642 4.71179 26.0466 4.71179 25.2161C4.71179 23.4382 4.71179 21.6473 4.71179 19.8694C4.71179 13.251 4.71179 6.63258 4.71179 0.0141602H-4.19311e-05C-4.19311e-05 6.10051 -4.19311e-05 12.1739 -4.19311e-05 18.2473C-4.19311e-05 20.5572 -4.19311e-05 22.8672 -4.19311e-05 25.1771C-4.19311e-05 25.9558 -4.19311e-05 26.7344 -4.19311e-05 27.5001C-4.19311e-05 28.2398 -0.0129865 28.9795 0.0517365 29.7192C0.440074 34.6765 3.70211 37.7132 8.65989 37.7651C9.13884 37.7651 9.61779 37.7651 10.0967 37.7651C12.4268 37.7651 14.8733 37.0254 16.5043 35.2994C18.1612 37.0384 20.6078 37.7781 22.9637 37.7651C23.4297 37.7651 23.8957 37.7651 24.3617 37.7651C29.3195 37.7132 32.5686 34.6765 32.9698 29.7192C33.0346 28.9795 33.0346 28.2398 33.0216 27.5001C33.0216 26.7214 33.0216 25.9428 33.0216 25.1771C33.0216 22.8672 33.0216 20.5572 33.0216 18.2473C33.0346 12.1869 33.0475 6.12646 33.0346 0.0660693Z" fill="#005EAD"/>
<path d="M89.4083 37.1021C89.4731 37.0761 89.5248 37.0502 89.5896 37.0242C89.5896 37.2967 89.5896 37.5563 89.5896 37.8288H94.3014C94.3014 34.3639 94.3014 30.9119 94.3014 27.447C94.3014 26.0065 94.3014 24.553 94.3014 23.1126C94.3014 22.0484 94.3014 20.9843 94.3014 19.9201C94.3014 19.427 94.3143 18.9468 94.2884 18.4537C94.1849 13.3017 91.363 9.53831 85.991 9.46045C85.3567 9.46045 84.7224 9.46045 84.0881 9.46045C79.9717 9.47343 76.7874 11.6666 75.8036 15.7544C75.5317 16.8575 75.4411 18.0125 75.4541 19.1545C75.4541 19.8163 75.4541 20.4782 75.4541 21.14C75.4541 22.8011 75.4541 24.4752 75.4541 26.1363C75.4541 26.7462 75.4541 27.3691 75.4541 27.979C75.3894 30.86 76.0625 33.9875 78.3407 35.9341C79.8423 37.2448 81.8616 37.8029 83.8292 37.8158C84.1011 37.8158 84.3858 37.8158 84.6577 37.8158C84.9295 37.8158 85.2013 37.8158 85.4732 37.8158C86.8194 37.8158 88.1657 37.6212 89.4083 37.1021ZM89.3307 30.5615C88.787 32.6249 87.2595 33.131 85.3049 33.0921C84.9425 33.0921 84.5671 33.0921 84.2046 33.0921C82.2241 33.131 80.9167 32.56 80.4119 30.5096C80.2565 29.8737 80.1918 29.2119 80.1789 28.563C80.1789 28.1218 80.1789 27.6935 80.1789 27.2523C80.1789 26.305 80.1789 25.3576 80.1789 24.4103C80.1789 23.2034 80.1789 21.9965 80.1789 20.7896C80.1789 20.3354 80.1789 19.8682 80.1789 19.414C80.1789 19.0507 80.1788 18.7003 80.1918 18.3369C80.3601 15.5338 81.4086 14.1453 84.3341 14.1842C84.8001 14.1842 85.2661 14.1842 85.7191 14.1842C88.1786 14.1453 89.2142 15.2613 89.5119 17.6491C89.5766 18.1682 89.5896 18.6743 89.5766 19.1934C89.5766 19.5308 89.5766 19.8682 89.5766 20.2056C89.5766 21.166 89.5766 22.1393 89.5766 23.0996C89.5766 24.5401 89.5766 25.9935 89.5766 27.434C89.5766 27.7325 89.5766 28.031 89.5766 28.3165C89.5896 29.0821 89.5248 29.8348 89.3307 30.5615Z" fill="#005EAD"/>
<path d="M51.6748 37.1021C51.7396 37.0761 51.7913 37.0502 51.8561 37.0242C51.8561 37.2967 51.8561 37.5563 51.8561 37.8288H56.5679C56.5679 34.3639 56.5679 30.9119 56.5679 27.447C56.5679 26.0065 56.5679 24.553 56.5679 23.1126C56.5679 22.0484 56.5679 20.9843 56.5679 19.9201C56.5679 19.427 56.5808 18.9468 56.555 18.4537C56.4514 13.3017 53.6295 9.53831 48.2575 9.46045C47.6232 9.46045 46.9889 9.46045 46.3546 9.46045C42.2382 9.47343 39.0539 11.6666 38.0701 15.7544C37.7982 16.8575 37.7076 18.0125 37.7206 19.1545C37.7206 19.8163 37.7206 20.4782 37.7206 21.14C37.7206 22.8011 37.7206 24.4752 37.7206 26.1363C37.7206 26.7462 37.7206 27.3691 37.7206 27.979C37.6558 30.86 38.329 33.9875 40.6072 35.9341C42.1088 37.2448 44.1281 37.8029 46.0957 37.8158C46.3676 37.8158 46.6523 37.8158 46.9242 37.8158C47.196 37.8158 47.4678 37.8158 47.7397 37.8158C49.0859 37.8158 50.4322 37.6212 51.6748 37.1021ZM51.5972 30.5615C51.0535 32.6249 49.526 33.131 47.5714 33.0921C47.209 33.0921 46.8336 33.0921 46.4711 33.0921C44.4906 33.131 43.1832 32.56 42.6783 30.5096C42.523 29.8737 42.4583 29.2119 42.4453 28.563C42.4453 28.1218 42.4453 27.6935 42.4453 27.2523C42.4453 26.305 42.4453 25.3576 42.4453 24.4103C42.4453 23.2034 42.4453 21.9965 42.4453 20.7896C42.4453 20.3354 42.4453 19.8682 42.4453 19.414C42.4453 19.0507 42.4453 18.7003 42.4583 18.3369C42.6266 15.5338 43.6751 14.1453 46.6006 14.1842C47.0666 14.1842 47.5326 14.1842 47.9856 14.1842C50.4451 14.1453 51.4807 15.2613 51.7784 17.6491C51.8431 18.1682 51.8561 18.6743 51.8431 19.1934C51.8431 19.5308 51.8431 19.8682 51.8431 20.2056C51.8431 21.166 51.8431 22.1393 51.8431 23.0996C51.8431 24.5401 51.8431 25.9935 51.8431 27.434C51.8431 27.7325 51.8431 28.031 51.8431 28.3165C51.8561 29.0821 51.7913 29.8348 51.5972 30.5615Z" fill="#005EAD"/>
<path d="M73.0076 33.105C71.985 33.105 70.9623 33.105 69.9397 33.105C68.8782 33.0791 67.7132 32.8585 66.9754 32.0409C66.1858 31.1325 66.0175 29.8477 65.9787 28.6798C65.9657 28.0439 65.9787 27.408 65.9787 26.7721C65.9787 25.098 65.9787 23.4369 65.9787 21.7629C65.9787 18.5185 65.9787 15.2872 65.9787 12.0429C65.9787 11.6406 65.9787 11.2253 65.9787 10.823C65.9787 10.7841 65.9787 10.7322 65.9787 10.6932C65.9787 10.6803 65.9787 12.9253 65.9787 12.9124C65.9787 12.7826 65.9787 12.6658 65.9787 12.536C65.9787 12.2765 65.9787 12.004 65.9787 11.7444C68.3475 11.7444 70.7293 11.7444 73.0982 11.7444V7.0077C70.7293 7.0077 68.3475 7.0077 65.9787 7.0077C65.9787 4.74965 65.9787 2.25801 65.9787 0.0129395H61.2539C61.2539 2.25801 61.2539 4.74965 61.2539 7.0077C59.6876 7.0077 58.1213 7.0077 56.555 7.0077V11.7314C58.1213 11.7314 59.6876 11.7314 61.2539 11.7314C61.2539 12.1207 61.2539 12.5101 61.2539 12.8994C61.2539 12.9124 61.2539 10.6673 61.2539 10.6803C61.2539 10.7062 61.2539 10.7192 61.2539 10.7452C61.2539 12.8345 61.2539 14.9238 61.2539 17.0132C61.2539 19.7644 61.2539 22.5285 61.2409 25.2797C61.2409 26.1232 61.2409 26.9668 61.2409 27.8103C61.215 29.2767 61.3186 30.7691 61.7587 32.1707C62.8849 35.8562 65.9916 37.7249 69.7196 37.8288C70.8458 37.8288 71.9591 37.8288 73.0852 37.8288V33.105C73.0723 33.105 73.0335 33.092 73.0076 33.105Z" fill="#005EAD"/>
<path d="M117.861 18.9209C117.951 13.2758 114.832 9.44752 109.032 9.43454C108.657 9.43454 108.269 9.43454 107.893 9.43454C106.482 9.42157 105.058 9.68111 103.764 10.2521C103.764 9.99257 103.764 9.73302 103.764 9.4605H99.0521C99.0521 15.7415 99.0521 22.0225 99.0521 28.3035C99.0521 31.483 99.0521 34.6494 99.0521 37.8289H103.764C103.764 34.6494 103.764 31.483 103.764 28.3035C103.764 26.4348 103.764 24.5661 103.764 22.6973C103.764 21.8408 103.764 20.9843 103.764 20.1408C103.764 19.5049 103.751 18.882 103.777 18.2461C103.932 15.443 105.058 14.1583 107.932 14.1713C108.398 14.1713 108.864 14.1713 109.33 14.1713C112.217 14.314 113.045 15.8583 113.136 18.5576C113.149 21.9187 113.136 25.2798 113.136 28.6409C113.136 31.7036 113.136 34.7662 113.136 37.8418H117.848C117.861 31.5219 117.861 25.2279 117.861 18.9209Z" fill="#005EAD"/>
<path d="M122.559 9.43457C122.559 18.895 122.559 28.3555 122.559 37.8289H127.271C127.271 28.3684 127.271 18.908 127.271 9.43457H122.559Z" fill="#005EAD"/>
<path d="M201.068 48.509C200.564 48.509 200.111 48.4311 199.709 48.2884C198.764 47.951 198.221 47.2891 198.065 46.3029V44.1876H199.463V45.5502C199.463 45.7968 199.489 45.9914 199.541 46.1471C199.709 46.7311 200.098 47.0945 200.732 47.2502C200.939 47.3021 201.146 47.3411 201.314 47.3411H204.149V43.4219H205.547V48.496H201.068V48.509ZM201.573 42.1631C201.586 42.6822 201.327 42.9288 200.81 42.9288C200.318 42.9288 200.072 42.6692 200.072 42.1631C200.085 41.657 200.318 41.3975 200.797 41.3975C201.314 41.3975 201.56 41.657 201.573 42.1631ZM203.528 42.1631C203.541 42.6822 203.282 42.9288 202.764 42.9288C202.272 42.9288 202.026 42.6692 202.026 42.1631C202.039 41.657 202.272 41.3975 202.751 41.3975C203.269 41.3975 203.528 41.657 203.528 42.1631Z" fill="#A0A4AE"/>
<path d="M206.661 48.509V40.4761H208.072V48.509H206.661Z" fill="#A0A4AE"/>
<path d="M210.544 49.2747C210.544 50.5854 209.974 51.4419 208.809 51.8442C208.538 51.935 208.292 51.9869 208.046 51.9999L207.347 50.9877C208.033 50.793 209.12 50.1442 209.12 49.3915V43.4089H210.531V49.2747H210.544Z" fill="#A0A4AE"/>
<path d="M214.634 47.341V48.5089H211.761V40.502H213.185V47.341H214.634Z" fill="#A0A4AE"/>
<path d="M219.605 47.3411V48.5091H214.324V47.3411H216.744V43.3831H218.168V47.3411H219.605ZM217.159 50.3C217.172 50.819 216.913 51.0656 216.395 51.0656C215.903 51.0656 215.657 50.8061 215.657 50.3C215.67 49.7938 215.903 49.5343 216.382 49.5343C216.9 49.5213 217.159 49.7809 217.159 50.3ZM219.126 50.3C219.139 50.819 218.88 51.0656 218.362 51.0656C217.871 51.0656 217.625 50.8061 217.625 50.3C217.638 49.7938 217.871 49.5343 218.349 49.5343C218.867 49.5213 219.113 49.7809 219.126 50.3Z" fill="#A0A4AE"/>
<path d="M227.605 43.7722C227.605 45.3035 227.605 45.9913 227.592 46.6013C227.592 46.8219 227.566 47.0425 227.501 47.2501L227.475 47.3539H229.055V48.5219H219.294V47.3539H220.356V43.7982H221.78V47.3539H223.165L223.178 43.7982H224.602V47.3539H225.352C225.469 47.3539 225.56 47.341 225.65 47.328C225.896 47.2891 226.051 47.1463 226.103 46.8997C226.129 46.77 226.155 46.6402 226.155 46.5104V43.7852H227.605V43.7722Z" fill="#A0A4AE"/>
<path d="M233.055 47.341V48.5089H228.731V47.341H230.181V40.502H231.605V47.341H233.055Z" fill="#A0A4AE"/>
<path d="M235.618 46.5494C235.618 47.8601 234.957 48.5089 233.65 48.5089H232.731V47.341H233.534C233.935 47.341 234.181 47.1074 234.181 46.6921V40.502H235.618V46.5494Z" fill="#A0A4AE"/>
<path d="M103.906 40.4761C104.178 40.4761 104.411 40.6058 104.502 40.8524L107.233 48.509H105.537L104.786 46.238H101.408L100.657 48.509H98.9614L101.693 40.8524C101.783 40.6058 102.003 40.4761 102.288 40.4761H103.906ZM102.922 41.5791L102.715 42.2669L101.796 45.0441H104.385L103.466 42.2669C103.401 42.0463 103.311 41.7998 103.272 41.5791H102.922Z" fill="#A0A4AE"/>
<path d="M112.76 48.509L112.644 47.7434C111.725 48.3663 110.858 48.6648 109.938 48.6648C108.773 48.6648 108.152 48.1197 108.152 47.0815V42.812H109.757V46.6663C109.757 47.2762 109.938 47.4708 110.547 47.4708C111.103 47.4708 111.647 47.2502 112.437 46.835V42.812H114.029V48.522H112.76V48.509Z" fill="#A0A4AE"/>
<path d="M119.867 42.8119V43.8371H117.977V46.731C117.977 47.2242 118.171 47.3929 118.754 47.3929H119.647L119.815 48.444C119.362 48.5738 118.547 48.6387 118.158 48.6387C117.019 48.6387 116.398 48.0417 116.398 46.9776V43.8371H115.22V42.8768L116.385 42.8249V41.1768H117.977V42.8249H119.867V42.8119Z" fill="#A0A4AE"/>
<path d="M127.194 45.6541C127.194 47.8343 126.339 48.6518 124.022 48.6518C121.692 48.6518 120.825 47.8343 120.825 45.6541C120.825 43.4609 121.692 42.6304 124.022 42.6304C126.339 42.6433 127.194 43.4609 127.194 45.6541ZM122.482 45.6541C122.482 47.1205 122.831 47.5358 124.022 47.5358C125.174 47.5358 125.537 47.1205 125.537 45.6541C125.537 44.1747 125.174 43.7724 124.022 43.7724C122.831 43.7724 122.482 44.1747 122.482 45.6541Z" fill="#A0A4AE"/>
<path d="M202.764 9.52539H198.065V26.5646C198.065 28.4073 197.988 30.302 198.557 32.0799C199.399 34.9739 201.625 36.9853 204.576 37.5693C205.172 37.6991 205.767 37.764 206.363 37.8029C207.903 37.8159 211.89 37.8159 213.379 37.8029V33.0921C213.314 33.0921 213.262 33.0921 213.197 33.0921C211.722 33.0792 207.838 33.1181 206.311 33.0792C204.68 32.9364 203.502 32.3395 203.023 30.6784C202.622 29.2898 202.777 27.8363 202.751 26.4088L202.764 9.52539Z" fill="#005EAD"/>
<path d="M325 25.9935C325 24.2805 325 22.5675 325 20.8545C324.987 19.6865 325.052 18.5056 324.922 17.3376C324.534 13.4185 322.295 10.4986 318.346 9.73292C317.764 9.61612 317.168 9.55123 316.573 9.52528C316.133 9.52528 315.693 9.52528 315.24 9.52528C312.198 9.44742 309.156 10.5635 307.538 13.2757C306.709 14.6254 306.321 16.1956 306.217 17.7659C306.153 18.5575 306.179 19.3621 306.179 20.1537C306.179 21.5942 306.179 23.0476 306.179 24.4881C306.192 26.0194 306.153 27.5507 306.191 29.0691C306.269 31.4439 307.02 33.9226 308.793 35.5707C310.502 37.1929 312.91 37.8158 315.214 37.7639C316.91 37.7639 318.605 37.7639 320.301 37.7639C320.301 38.9837 320.172 40.4112 319.356 41.3845C318.618 42.228 317.427 42.4616 316.366 42.5006C314.644 42.5006 312.599 42.5006 310.877 42.5006V47.2373C312.288 47.2373 314.139 47.2373 315.55 47.2373C318.282 47.3411 321.091 46.6403 322.929 44.4861C324.21 43.0067 324.806 41.0731 324.961 39.1524C325.039 38.231 325.013 37.3097 325.013 36.3883C325.013 35.2982 325.013 34.2081 325.013 33.131C325 30.7431 325 28.3683 325 25.9935ZM320.288 30.9508C320.288 31.6516 320.288 32.3653 320.288 33.0661C318.618 33.0661 316.948 33.0661 315.279 33.0661C312.327 33.118 311.059 31.976 310.89 29.0172C310.864 28.3813 310.877 27.7454 310.877 27.1095C310.877 26.3438 310.877 25.5912 310.877 24.8255C310.877 23.2423 310.877 21.659 310.877 20.0888C310.877 18.843 310.813 17.5582 311.253 16.3773C311.473 15.7803 311.835 15.2223 312.379 14.8849C313.272 14.3139 314.385 14.236 315.421 14.262C315.835 14.262 316.249 14.249 316.664 14.275C317.466 14.3399 318.308 14.5086 318.955 15.0147C320.081 15.8971 320.275 17.5323 320.288 18.8689C320.288 20.2186 320.288 21.5812 320.288 22.9308C320.288 25.6041 320.288 28.2775 320.288 30.9508Z" fill="#005EAD"/>
<path d="M230.932 29.0432C230.854 30.5096 230.466 32.1188 228.964 32.7158C228.174 33.0402 227.307 33.1051 226.466 33.0921C225.391 33.0791 221.249 33.0921 220.201 33.0921V37.8029C220.99 37.8158 225.314 37.7899 226.194 37.8029C227.501 37.8288 228.822 37.738 230.077 37.3227C232.938 36.4273 234.802 34.1173 235.385 31.2104C235.682 29.8478 235.656 28.4592 235.656 27.0706C235.656 22.5156 235.669 27.3821 235.669 22.8271C235.669 21.8019 235.669 20.7896 235.669 19.7644C235.669 19.1675 235.656 18.5575 235.708 17.9606C235.812 16.8575 236.097 15.6247 237.029 14.9239C237.844 14.3399 238.893 14.1842 239.863 14.1972C240.472 14.2101 241.093 14.1582 241.702 14.2361C242.608 14.3399 243.566 14.6514 244.148 15.3911C244.769 16.1957 244.938 17.2468 245.002 18.2461C245.041 19.1934 245.015 20.1278 245.015 21.0751C245.015 22.853 245.015 24.6179 245.015 26.3958C245.015 26.9149 245.015 27.421 245.015 27.9271C245.015 28.576 245.015 29.2249 245.08 29.8737C245.248 31.6257 245.792 33.3906 246.892 34.7921C247.928 36.1288 249.429 37.0372 251.06 37.4525C251.811 37.6471 252.575 37.751 253.339 37.7899C253.688 37.8029 254.038 37.7899 254.387 37.7899C255.552 37.7639 259.759 37.8548 260.873 37.738C262.853 37.5563 264.846 36.7906 266.232 35.3242C267.604 36.7777 269.571 37.5303 271.526 37.725C272.406 37.8158 273.299 37.7639 274.18 37.7769C277.144 37.7769 281.131 37.7769 284.056 37.7769C287.59 37.7639 291.124 37.7769 294.658 37.7769C296.962 37.7769 299.253 37.7769 301.557 37.7769V33.0662C301.557 28.1997 301.57 23.3202 301.557 18.4537C301.493 14.2361 299.486 10.6933 295.176 9.74596C293.985 9.46046 292.755 9.47344 291.525 9.48642C290.166 9.48642 288.807 9.48642 287.448 9.48642C287.448 7.99403 287.448 6.51462 287.448 5.02223C287.448 4.28252 287.448 1.16797 287.448 0.428268C287.448 0.324449 287.448 0.207654 287.448 0.103835C287.448 -0.0518921 287.448 7.73448 287.448 7.03371C287.448 5.50239 287.448 1.59622 287.448 0.0778809H282.749C282.749 0.337427 282.749 2.97182 282.749 3.23136C282.749 4.42527 282.749 5.60621 282.749 6.80012C282.749 6.92989 282.749 7.04669 282.749 7.17646C282.749 7.18944 282.749 0.0908581 282.749 0.103835C282.749 0.376359 282.749 3.01075 282.749 3.28327C282.749 4.42527 282.749 5.56728 282.749 6.70928C282.749 15.4949 282.749 24.2805 282.749 33.0662C280.458 33.0791 276.535 33.0662 274.192 33.0662C272.691 33.0532 270.982 33.2478 269.765 32.1837C268.562 31.0417 268.587 29.1859 268.587 27.6416C268.587 26.5516 268.587 25.4615 268.587 24.3714C268.587 19.414 268.587 14.4567 268.587 9.49939H263.876C263.876 13.7559 263.876 18.0255 263.876 22.282C263.876 23.7744 263.876 25.2538 263.876 26.7462C263.863 27.7325 263.927 28.7188 263.798 29.6921C263.656 30.8081 263.228 32.028 262.167 32.56C261.429 32.9364 260.575 33.0662 259.759 33.0662C259.332 33.0662 254.685 33.0662 254.18 33.0662C253.248 33.0921 252.264 33.0013 251.423 32.5471C249.831 31.6776 249.714 29.6012 249.727 27.992C249.727 26.0325 249.727 24.0729 249.727 22.1133C249.727 21.3217 249.727 20.5301 249.727 19.7385C249.727 19.1545 249.74 18.5705 249.701 17.9865C249.624 16.5201 249.326 15.0407 248.64 13.73C247.449 11.3551 245.171 9.9536 242.582 9.59023C241.766 9.46046 240.951 9.46046 240.122 9.47344C235.618 9.34367 232.084 11.6147 231.191 16.1827C230.945 17.3636 230.932 18.5705 230.945 19.7774L230.932 29.0432ZM296.846 18.9988C296.846 23.6965 296.846 28.3813 296.846 33.0791C293.713 33.0791 290.58 33.0791 287.448 33.0791C287.448 26.7851 287.448 20.5041 287.448 14.2101C289.156 14.2101 290.865 14.2101 292.574 14.2101C293.687 14.1972 294.917 14.3659 295.758 15.1705C296.716 16.1438 296.833 17.6751 296.846 18.9988Z" fill="#005EAD"/>
<path d="M219.113 35.441C219.113 36.7387 218.065 37.8028 216.757 37.8028C213.638 37.6731 213.638 33.2089 216.757 33.0791C218.052 33.0791 219.113 34.1432 219.113 35.441Z" fill="#005EAD"/>
<path d="M219.113 29.5232C219.113 30.821 218.065 31.8851 216.757 31.8851C213.638 31.7553 213.638 27.2911 216.757 27.1614C218.052 27.1614 219.113 28.2125 219.113 29.5232Z" fill="#005EAD"/>
<path d="M268.536 5.94365C268.536 7.24138 267.487 8.30552 266.18 8.30552C263.06 8.17575 263.06 3.71156 266.18 3.58179C267.487 3.58179 268.536 4.64592 268.536 5.94365Z" fill="#005EAD"/>
<defs>
<linearGradient id="paint0_linear" x1="179.213" y1="3.69934" x2="178.266" y2="64.0416" gradientUnits="userSpaceOnUse">
<stop offset="0.00065317" stop-color="#5E6D7D"/>
<stop offset="0.1254" stop-color="#727C87"/>
<stop offset="0.3093" stop-color="#98989A"/>
<stop offset="0.3589" stop-color="#A1A2A4"/>
<stop offset="0.5297" stop-color="#BEBFC1"/>
<stop offset="0.627" stop-color="#C9CACC"/>
<stop offset="0.7068" stop-color="#AFB2B8"/>
<stop offset="0.832" stop-color="#8B939C"/>
<stop offset="0.9342" stop-color="#757F8B"/>
<stop offset="1" stop-color="#6D7885"/>
</linearGradient>
<linearGradient id="paint1_linear" x1="162.184" y1="13.9198" x2="162.184" y2="48.7945" gradientUnits="userSpaceOnUse">
<stop offset="0.00502804" stop-color="#22448D"/>
<stop offset="0.4862" stop-color="#3795D0"/>
<stop offset="0.4916" stop-color="#3694D0"/>
<stop offset="0.6962" stop-color="#1885C6"/>
<stop offset="0.8727" stop-color="#067BC1"/>
<stop offset="1" stop-color="#0078BE"/>
</linearGradient>
<linearGradient id="paint2_linear" x1="169.069" y1="34.2416" x2="162.92" y2="39.8482" gradientUnits="userSpaceOnUse">
<stop stop-color="white"/>
<stop offset="0.00541961" stop-color="#F1F7FB"/>
<stop offset="0.0247345" stop-color="#C6DDED"/>
<stop offset="0.0461393" stop-color="#9FC5E1"/>
<stop offset="0.0692195" stop-color="#7DB1D7"/>
<stop offset="0.0944243" stop-color="#61A0CE"/>
<stop offset="0.1225" stop-color="#4A92C7"/>
<stop offset="0.1547" stop-color="#3887C1"/>
<stop offset="0.1935" stop-color="#2B80BD"/>
<stop offset="0.2457" stop-color="#247CBB"/>
<stop offset="0.3684" stop-color="#227ABB"/>
<stop offset="0.49" stop-color="#569ACB"/>
<stop offset="0.6722" stop-color="#9EC5E1"/>
<stop offset="0.824" stop-color="#D2E4F1"/>
<stop offset="0.9376" stop-color="#F3F8FB"/>
<stop offset="1" stop-color="white"/>
</linearGradient>
<linearGradient id="paint3_linear" x1="167.965" y1="34.5893" x2="172.875" y2="3.18663" gradientUnits="userSpaceOnUse">
<stop offset="0.00502804" stop-color="#22448D"/>
<stop offset="0.4862" stop-color="#3795D0"/>
<stop offset="0.4916" stop-color="#3694D0"/>
<stop offset="0.6962" stop-color="#1885C6"/>
<stop offset="0.8727" stop-color="#067BC1"/>
<stop offset="1" stop-color="#0078BE"/>
</linearGradient>
<linearGradient id="paint4_linear" x1="152.556" y1="-2.36789" x2="152.556" y2="57.4657" gradientUnits="userSpaceOnUse">
<stop offset="0.00065317" stop-color="#5E6D7D"/>
<stop offset="0.1254" stop-color="#727C87"/>
<stop offset="0.3093" stop-color="#98989A"/>
<stop offset="0.3589" stop-color="#A1A2A4"/>
<stop offset="0.5297" stop-color="#BEBFC1"/>
<stop offset="0.627" stop-color="#C9CACC"/>
<stop offset="0.7068" stop-color="#AFB2B8"/>
<stop offset="0.832" stop-color="#8B939C"/>
<stop offset="0.9342" stop-color="#757F8B"/>
<stop offset="1" stop-color="#6D7885"/>
</linearGradient>
</defs>
</svg>
