<svg width="23" height="17" viewBox="0 0 23 17" fill="none" xmlns="http://www.w3.org/2000/svg">
<path fill-rule="evenodd" clip-rule="evenodd" d="M20.5535 0.981876C21.5172 1.24135 22.2771 2.00123 22.5366 2.96498C23.0184 4.72568 22.9999 8.39535 22.9999 8.39535C22.9999 8.39535 22.9999 12.0465 22.5366 13.8072C22.2771 14.7709 21.5172 15.5308 20.5535 15.7903C18.7928 16.2536 11.75 16.2536 11.75 16.2536C11.75 16.2536 4.72568 16.2536 2.94645 15.7718C1.9827 15.5123 1.22281 14.7524 0.963342 13.7887C0.5 12.0465 0.5 8.37682 0.5 8.37682C0.5 8.37682 0.5 4.72568 0.963342 2.96498C1.22281 2.00123 2.00123 1.22281 2.94645 0.963342C4.70715 0.5 11.75 0.5 11.75 0.5C11.75 0.5 18.7928 0.5 20.5535 0.981876ZM15.364 8.37683L9.50737 11.75V5.0037L15.364 8.37683Z" fill="white"/>
</svg>
